<mxfile host="app.diagrams.net" modified="2020-11-24T14:28:21.987Z" agent="5.0 (Windows NT 10.0; Win64; x64) AppleWebKit/537.36 (KHTML, like Gecko) Chrome/86.0.4240.198 Safari/537.36" etag="Lt68IqevY1yGme-kT0o_" version="13.10.0" type="github">
  <diagram id="-6XYK5tT2vSQ0VzhzRom" name="Página-1">
    <mxGraphModel dx="2086" dy="562" grid="1" gridSize="10" guides="1" tooltips="1" connect="1" arrows="1" fold="1" page="1" pageScale="1" pageWidth="827" pageHeight="1169" math="0" shadow="0">
      <root>
        <mxCell id="0" />
        <mxCell id="1" parent="0" />
        <mxCell id="aAwCayTCrIzlKERKmkv0-1" value="Exercício_13_resistores_misto&lt;br&gt;Autor: Juan Moisés&lt;br&gt;RA:&amp;nbsp;&lt;b&gt;&lt;span style=&quot;font-size: 9.0pt ; line-height: 107% ; font-family: &amp;#34;calibri&amp;#34; , sans-serif ; color: #00b0f0&quot;&gt;731921026&lt;/span&gt;&lt;/b&gt;&lt;br&gt;Data: 23/11/2020&lt;br&gt;Descrição :&amp;nbsp;Calcule as tensões e as correntes parciais no circuito misto." style="text;html=1;strokeColor=#82b366;fillColor=#d5e8d4;align=center;verticalAlign=middle;whiteSpace=wrap;rounded=0;fontStyle=1;" parent="1" vertex="1">
          <mxGeometry x="40" y="30" width="290" height="150" as="geometry" />
        </mxCell>
        <mxCell id="aAwCayTCrIzlKERKmkv0-2" value="" style="shape=table;html=1;whiteSpace=wrap;startSize=0;container=1;collapsible=0;childLayout=tableLayout;fillColor=#d5e8d4;strokeColor=#82b366;" parent="1" vertex="1">
          <mxGeometry x="460" y="230" width="1420" height="600" as="geometry" />
        </mxCell>
        <mxCell id="aAwCayTCrIzlKERKmkv0-3" value="" style="shape=partialRectangle;html=1;whiteSpace=wrap;collapsible=0;dropTarget=0;pointerEvents=0;fillColor=none;top=0;left=0;bottom=0;right=0;points=[[0,0.5],[1,0.5]];portConstraint=eastwest;" parent="aAwCayTCrIzlKERKmkv0-2" vertex="1">
          <mxGeometry width="1420" height="40" as="geometry" />
        </mxCell>
        <mxCell id="aAwCayTCrIzlKERKmkv0-4" value="Processo" style="shape=partialRectangle;html=1;whiteSpace=wrap;connectable=0;overflow=hidden;fillColor=none;top=0;left=0;bottom=0;right=0;fontStyle=1" parent="aAwCayTCrIzlKERKmkv0-3" vertex="1">
          <mxGeometry width="80" height="40" as="geometry" />
        </mxCell>
        <mxCell id="aAwCayTCrIzlKERKmkv0-5" value="&lt;span&gt;e_E1&lt;/span&gt;" style="shape=partialRectangle;html=1;whiteSpace=wrap;connectable=0;overflow=hidden;fillColor=none;top=0;left=0;bottom=0;right=0;fontStyle=1" parent="aAwCayTCrIzlKERKmkv0-3" vertex="1">
          <mxGeometry x="80" width="40" height="40" as="geometry" />
        </mxCell>
        <mxCell id="aAwCayTCrIzlKERKmkv0-6" value="e_r1" style="shape=partialRectangle;html=1;whiteSpace=wrap;connectable=0;overflow=hidden;fillColor=none;top=0;left=0;bottom=0;right=0;fontStyle=1" parent="aAwCayTCrIzlKERKmkv0-3" vertex="1">
          <mxGeometry x="120" width="40" height="40" as="geometry" />
        </mxCell>
        <mxCell id="aAwCayTCrIzlKERKmkv0-7" value="e_r2" style="shape=partialRectangle;html=1;whiteSpace=wrap;connectable=0;overflow=hidden;fillColor=none;top=0;left=0;bottom=0;right=0;fontStyle=1" parent="aAwCayTCrIzlKERKmkv0-3" vertex="1">
          <mxGeometry x="160" width="40" height="40" as="geometry" />
        </mxCell>
        <mxCell id="JU6Ls0UAyjR_cwakm41P-3" value="e_r3" style="shape=partialRectangle;html=1;whiteSpace=wrap;connectable=0;overflow=hidden;fillColor=none;top=0;left=0;bottom=0;right=0;fontStyle=1" parent="aAwCayTCrIzlKERKmkv0-3" vertex="1">
          <mxGeometry x="200" width="40" height="40" as="geometry" />
        </mxCell>
        <mxCell id="aAwCayTCrIzlKERKmkv0-9" value="ra" style="shape=partialRectangle;html=1;whiteSpace=wrap;connectable=0;overflow=hidden;fillColor=none;top=0;left=0;bottom=0;right=0;fontStyle=1" parent="aAwCayTCrIzlKERKmkv0-3" vertex="1">
          <mxGeometry x="240" width="140" height="40" as="geometry" />
        </mxCell>
        <mxCell id="aAwCayTCrIzlKERKmkv0-11" value="rt" style="shape=partialRectangle;html=1;whiteSpace=wrap;connectable=0;overflow=hidden;fillColor=none;top=0;left=0;bottom=0;right=0;fontStyle=1" parent="aAwCayTCrIzlKERKmkv0-3" vertex="1">
          <mxGeometry x="380" width="90" height="40" as="geometry" />
        </mxCell>
        <mxCell id="aAwCayTCrIzlKERKmkv0-12" value="it" style="shape=partialRectangle;html=1;whiteSpace=wrap;connectable=0;overflow=hidden;fillColor=none;top=0;left=0;bottom=0;right=0;fontStyle=1" parent="aAwCayTCrIzlKERKmkv0-3" vertex="1">
          <mxGeometry x="470" width="80" height="40" as="geometry" />
        </mxCell>
        <mxCell id="JU6Ls0UAyjR_cwakm41P-12" value="ir1" style="shape=partialRectangle;html=1;whiteSpace=wrap;connectable=0;overflow=hidden;fillColor=none;top=0;left=0;bottom=0;right=0;fontStyle=1" parent="aAwCayTCrIzlKERKmkv0-3" vertex="1">
          <mxGeometry x="550" width="80" height="40" as="geometry" />
        </mxCell>
        <mxCell id="JU6Ls0UAyjR_cwakm41P-31" value="E_r1" style="shape=partialRectangle;html=1;whiteSpace=wrap;connectable=0;overflow=hidden;fillColor=none;top=0;left=0;bottom=0;right=0;fontStyle=1" parent="aAwCayTCrIzlKERKmkv0-3" vertex="1">
          <mxGeometry x="630" width="100" height="40" as="geometry" />
        </mxCell>
        <mxCell id="JU6Ls0UAyjR_cwakm41P-40" value="E_ra" style="shape=partialRectangle;html=1;whiteSpace=wrap;connectable=0;overflow=hidden;fillColor=none;top=0;left=0;bottom=0;right=0;fontStyle=1" parent="aAwCayTCrIzlKERKmkv0-3" vertex="1">
          <mxGeometry x="730" width="110" height="40" as="geometry" />
        </mxCell>
        <mxCell id="JU6Ls0UAyjR_cwakm41P-100" value="E_r2=E_r3=E_ra" style="shape=partialRectangle;html=1;whiteSpace=wrap;connectable=0;overflow=hidden;fillColor=none;top=0;left=0;bottom=0;right=0;fontStyle=1" parent="aAwCayTCrIzlKERKmkv0-3" vertex="1">
          <mxGeometry x="840" width="110" height="40" as="geometry" />
        </mxCell>
        <mxCell id="JU6Ls0UAyjR_cwakm41P-88" value="ir2" style="shape=partialRectangle;html=1;whiteSpace=wrap;connectable=0;overflow=hidden;fillColor=none;top=0;left=0;bottom=0;right=0;fontStyle=1" parent="aAwCayTCrIzlKERKmkv0-3" vertex="1">
          <mxGeometry x="950" width="100" height="40" as="geometry" />
        </mxCell>
        <mxCell id="JU6Ls0UAyjR_cwakm41P-142" value="i_r3" style="shape=partialRectangle;html=1;whiteSpace=wrap;connectable=0;overflow=hidden;fillColor=none;top=0;left=0;bottom=0;right=0;fontStyle=1" parent="aAwCayTCrIzlKERKmkv0-3" vertex="1">
          <mxGeometry x="1050" width="140" height="40" as="geometry" />
        </mxCell>
        <mxCell id="aAwCayTCrIzlKERKmkv0-241" value="Saída" style="shape=partialRectangle;html=1;whiteSpace=wrap;connectable=0;overflow=hidden;fillColor=none;top=0;left=0;bottom=0;right=0;fontStyle=1" parent="aAwCayTCrIzlKERKmkv0-3" vertex="1">
          <mxGeometry x="1190" width="230" height="40" as="geometry" />
        </mxCell>
        <mxCell id="aAwCayTCrIzlKERKmkv0-15" value="" style="shape=partialRectangle;html=1;whiteSpace=wrap;collapsible=0;dropTarget=0;pointerEvents=0;fillColor=none;top=0;left=0;bottom=0;right=0;points=[[0,0.5],[1,0.5]];portConstraint=eastwest;" parent="aAwCayTCrIzlKERKmkv0-2" vertex="1">
          <mxGeometry y="40" width="1420" height="40" as="geometry" />
        </mxCell>
        <mxCell id="aAwCayTCrIzlKERKmkv0-16" value="1" style="shape=partialRectangle;html=1;whiteSpace=wrap;connectable=0;overflow=hidden;fillColor=none;top=0;left=0;bottom=0;right=0;" parent="aAwCayTCrIzlKERKmkv0-15" vertex="1">
          <mxGeometry width="80" height="40" as="geometry" />
        </mxCell>
        <mxCell id="aAwCayTCrIzlKERKmkv0-17" value="&lt;b&gt;{10}&lt;/b&gt;" style="shape=partialRectangle;html=1;whiteSpace=wrap;connectable=0;overflow=hidden;fillColor=none;top=0;left=0;bottom=0;right=0;" parent="aAwCayTCrIzlKERKmkv0-15" vertex="1">
          <mxGeometry x="80" width="40" height="40" as="geometry" />
        </mxCell>
        <mxCell id="aAwCayTCrIzlKERKmkv0-18" value="" style="shape=partialRectangle;html=1;whiteSpace=wrap;connectable=0;overflow=hidden;fillColor=none;top=0;left=0;bottom=0;right=0;" parent="aAwCayTCrIzlKERKmkv0-15" vertex="1">
          <mxGeometry x="120" width="40" height="40" as="geometry" />
        </mxCell>
        <mxCell id="aAwCayTCrIzlKERKmkv0-19" value="" style="shape=partialRectangle;html=1;whiteSpace=wrap;connectable=0;overflow=hidden;fillColor=none;top=0;left=0;bottom=0;right=0;" parent="aAwCayTCrIzlKERKmkv0-15" vertex="1">
          <mxGeometry x="160" width="40" height="40" as="geometry" />
        </mxCell>
        <mxCell id="JU6Ls0UAyjR_cwakm41P-4" style="shape=partialRectangle;html=1;whiteSpace=wrap;connectable=0;overflow=hidden;fillColor=none;top=0;left=0;bottom=0;right=0;" parent="aAwCayTCrIzlKERKmkv0-15" vertex="1">
          <mxGeometry x="200" width="40" height="40" as="geometry" />
        </mxCell>
        <mxCell id="aAwCayTCrIzlKERKmkv0-21" style="shape=partialRectangle;html=1;whiteSpace=wrap;connectable=0;overflow=hidden;fillColor=none;top=0;left=0;bottom=0;right=0;" parent="aAwCayTCrIzlKERKmkv0-15" vertex="1">
          <mxGeometry x="240" width="140" height="40" as="geometry" />
        </mxCell>
        <mxCell id="aAwCayTCrIzlKERKmkv0-23" style="shape=partialRectangle;html=1;whiteSpace=wrap;connectable=0;overflow=hidden;fillColor=none;top=0;left=0;bottom=0;right=0;" parent="aAwCayTCrIzlKERKmkv0-15" vertex="1">
          <mxGeometry x="380" width="90" height="40" as="geometry" />
        </mxCell>
        <mxCell id="aAwCayTCrIzlKERKmkv0-24" style="shape=partialRectangle;html=1;whiteSpace=wrap;connectable=0;overflow=hidden;fillColor=none;top=0;left=0;bottom=0;right=0;" parent="aAwCayTCrIzlKERKmkv0-15" vertex="1">
          <mxGeometry x="470" width="80" height="40" as="geometry" />
        </mxCell>
        <mxCell id="JU6Ls0UAyjR_cwakm41P-13" style="shape=partialRectangle;html=1;whiteSpace=wrap;connectable=0;overflow=hidden;fillColor=none;top=0;left=0;bottom=0;right=0;" parent="aAwCayTCrIzlKERKmkv0-15" vertex="1">
          <mxGeometry x="550" width="80" height="40" as="geometry" />
        </mxCell>
        <mxCell id="JU6Ls0UAyjR_cwakm41P-32" style="shape=partialRectangle;html=1;whiteSpace=wrap;connectable=0;overflow=hidden;fillColor=none;top=0;left=0;bottom=0;right=0;" parent="aAwCayTCrIzlKERKmkv0-15" vertex="1">
          <mxGeometry x="630" width="100" height="40" as="geometry" />
        </mxCell>
        <mxCell id="JU6Ls0UAyjR_cwakm41P-41" style="shape=partialRectangle;html=1;whiteSpace=wrap;connectable=0;overflow=hidden;fillColor=none;top=0;left=0;bottom=0;right=0;" parent="aAwCayTCrIzlKERKmkv0-15" vertex="1">
          <mxGeometry x="730" width="110" height="40" as="geometry" />
        </mxCell>
        <mxCell id="JU6Ls0UAyjR_cwakm41P-101" style="shape=partialRectangle;html=1;whiteSpace=wrap;connectable=0;overflow=hidden;fillColor=none;top=0;left=0;bottom=0;right=0;" parent="aAwCayTCrIzlKERKmkv0-15" vertex="1">
          <mxGeometry x="840" width="110" height="40" as="geometry" />
        </mxCell>
        <mxCell id="JU6Ls0UAyjR_cwakm41P-89" style="shape=partialRectangle;html=1;whiteSpace=wrap;connectable=0;overflow=hidden;fillColor=none;top=0;left=0;bottom=0;right=0;" parent="aAwCayTCrIzlKERKmkv0-15" vertex="1">
          <mxGeometry x="950" width="100" height="40" as="geometry" />
        </mxCell>
        <mxCell id="JU6Ls0UAyjR_cwakm41P-143" style="shape=partialRectangle;html=1;whiteSpace=wrap;connectable=0;overflow=hidden;fillColor=none;top=0;left=0;bottom=0;right=0;" parent="aAwCayTCrIzlKERKmkv0-15" vertex="1">
          <mxGeometry x="1050" width="140" height="40" as="geometry" />
        </mxCell>
        <mxCell id="aAwCayTCrIzlKERKmkv0-242" style="shape=partialRectangle;html=1;whiteSpace=wrap;connectable=0;overflow=hidden;fillColor=none;top=0;left=0;bottom=0;right=0;" parent="aAwCayTCrIzlKERKmkv0-15" vertex="1">
          <mxGeometry x="1190" width="230" height="40" as="geometry" />
        </mxCell>
        <mxCell id="aAwCayTCrIzlKERKmkv0-27" style="shape=partialRectangle;html=1;whiteSpace=wrap;collapsible=0;dropTarget=0;pointerEvents=0;fillColor=none;top=0;left=0;bottom=0;right=0;points=[[0,0.5],[1,0.5]];portConstraint=eastwest;" parent="aAwCayTCrIzlKERKmkv0-2" vertex="1">
          <mxGeometry y="80" width="1420" height="40" as="geometry" />
        </mxCell>
        <mxCell id="aAwCayTCrIzlKERKmkv0-28" value="2" style="shape=partialRectangle;html=1;whiteSpace=wrap;connectable=0;overflow=hidden;fillColor=none;top=0;left=0;bottom=0;right=0;" parent="aAwCayTCrIzlKERKmkv0-27" vertex="1">
          <mxGeometry width="80" height="40" as="geometry" />
        </mxCell>
        <mxCell id="aAwCayTCrIzlKERKmkv0-29" value="10" style="shape=partialRectangle;html=1;whiteSpace=wrap;connectable=0;overflow=hidden;fillColor=none;top=0;left=0;bottom=0;right=0;" parent="aAwCayTCrIzlKERKmkv0-27" vertex="1">
          <mxGeometry x="80" width="40" height="40" as="geometry" />
        </mxCell>
        <mxCell id="aAwCayTCrIzlKERKmkv0-30" value="&lt;b&gt;{2}&lt;/b&gt;" style="shape=partialRectangle;html=1;whiteSpace=wrap;connectable=0;overflow=hidden;fillColor=none;top=0;left=0;bottom=0;right=0;" parent="aAwCayTCrIzlKERKmkv0-27" vertex="1">
          <mxGeometry x="120" width="40" height="40" as="geometry" />
        </mxCell>
        <mxCell id="aAwCayTCrIzlKERKmkv0-31" style="shape=partialRectangle;html=1;whiteSpace=wrap;connectable=0;overflow=hidden;fillColor=none;top=0;left=0;bottom=0;right=0;" parent="aAwCayTCrIzlKERKmkv0-27" vertex="1">
          <mxGeometry x="160" width="40" height="40" as="geometry" />
        </mxCell>
        <mxCell id="JU6Ls0UAyjR_cwakm41P-5" style="shape=partialRectangle;html=1;whiteSpace=wrap;connectable=0;overflow=hidden;fillColor=none;top=0;left=0;bottom=0;right=0;" parent="aAwCayTCrIzlKERKmkv0-27" vertex="1">
          <mxGeometry x="200" width="40" height="40" as="geometry" />
        </mxCell>
        <mxCell id="aAwCayTCrIzlKERKmkv0-33" style="shape=partialRectangle;html=1;whiteSpace=wrap;connectable=0;overflow=hidden;fillColor=none;top=0;left=0;bottom=0;right=0;" parent="aAwCayTCrIzlKERKmkv0-27" vertex="1">
          <mxGeometry x="240" width="140" height="40" as="geometry" />
        </mxCell>
        <mxCell id="aAwCayTCrIzlKERKmkv0-35" style="shape=partialRectangle;html=1;whiteSpace=wrap;connectable=0;overflow=hidden;fillColor=none;top=0;left=0;bottom=0;right=0;" parent="aAwCayTCrIzlKERKmkv0-27" vertex="1">
          <mxGeometry x="380" width="90" height="40" as="geometry" />
        </mxCell>
        <mxCell id="aAwCayTCrIzlKERKmkv0-36" style="shape=partialRectangle;html=1;whiteSpace=wrap;connectable=0;overflow=hidden;fillColor=none;top=0;left=0;bottom=0;right=0;" parent="aAwCayTCrIzlKERKmkv0-27" vertex="1">
          <mxGeometry x="470" width="80" height="40" as="geometry" />
        </mxCell>
        <mxCell id="JU6Ls0UAyjR_cwakm41P-14" style="shape=partialRectangle;html=1;whiteSpace=wrap;connectable=0;overflow=hidden;fillColor=none;top=0;left=0;bottom=0;right=0;" parent="aAwCayTCrIzlKERKmkv0-27" vertex="1">
          <mxGeometry x="550" width="80" height="40" as="geometry" />
        </mxCell>
        <mxCell id="JU6Ls0UAyjR_cwakm41P-33" style="shape=partialRectangle;html=1;whiteSpace=wrap;connectable=0;overflow=hidden;fillColor=none;top=0;left=0;bottom=0;right=0;" parent="aAwCayTCrIzlKERKmkv0-27" vertex="1">
          <mxGeometry x="630" width="100" height="40" as="geometry" />
        </mxCell>
        <mxCell id="JU6Ls0UAyjR_cwakm41P-42" style="shape=partialRectangle;html=1;whiteSpace=wrap;connectable=0;overflow=hidden;fillColor=none;top=0;left=0;bottom=0;right=0;" parent="aAwCayTCrIzlKERKmkv0-27" vertex="1">
          <mxGeometry x="730" width="110" height="40" as="geometry" />
        </mxCell>
        <mxCell id="JU6Ls0UAyjR_cwakm41P-102" style="shape=partialRectangle;html=1;whiteSpace=wrap;connectable=0;overflow=hidden;fillColor=none;top=0;left=0;bottom=0;right=0;" parent="aAwCayTCrIzlKERKmkv0-27" vertex="1">
          <mxGeometry x="840" width="110" height="40" as="geometry" />
        </mxCell>
        <mxCell id="JU6Ls0UAyjR_cwakm41P-90" style="shape=partialRectangle;html=1;whiteSpace=wrap;connectable=0;overflow=hidden;fillColor=none;top=0;left=0;bottom=0;right=0;" parent="aAwCayTCrIzlKERKmkv0-27" vertex="1">
          <mxGeometry x="950" width="100" height="40" as="geometry" />
        </mxCell>
        <mxCell id="JU6Ls0UAyjR_cwakm41P-144" style="shape=partialRectangle;html=1;whiteSpace=wrap;connectable=0;overflow=hidden;fillColor=none;top=0;left=0;bottom=0;right=0;" parent="aAwCayTCrIzlKERKmkv0-27" vertex="1">
          <mxGeometry x="1050" width="140" height="40" as="geometry" />
        </mxCell>
        <mxCell id="aAwCayTCrIzlKERKmkv0-243" style="shape=partialRectangle;html=1;whiteSpace=wrap;connectable=0;overflow=hidden;fillColor=none;top=0;left=0;bottom=0;right=0;" parent="aAwCayTCrIzlKERKmkv0-27" vertex="1">
          <mxGeometry x="1190" width="230" height="40" as="geometry" />
        </mxCell>
        <mxCell id="aAwCayTCrIzlKERKmkv0-39" style="shape=partialRectangle;html=1;whiteSpace=wrap;collapsible=0;dropTarget=0;pointerEvents=0;fillColor=none;top=0;left=0;bottom=0;right=0;points=[[0,0.5],[1,0.5]];portConstraint=eastwest;" parent="aAwCayTCrIzlKERKmkv0-2" vertex="1">
          <mxGeometry y="120" width="1420" height="40" as="geometry" />
        </mxCell>
        <mxCell id="aAwCayTCrIzlKERKmkv0-40" value="3" style="shape=partialRectangle;html=1;whiteSpace=wrap;connectable=0;overflow=hidden;fillColor=none;top=0;left=0;bottom=0;right=0;" parent="aAwCayTCrIzlKERKmkv0-39" vertex="1">
          <mxGeometry width="80" height="40" as="geometry" />
        </mxCell>
        <mxCell id="aAwCayTCrIzlKERKmkv0-41" value="10" style="shape=partialRectangle;html=1;whiteSpace=wrap;connectable=0;overflow=hidden;fillColor=none;top=0;left=0;bottom=0;right=0;" parent="aAwCayTCrIzlKERKmkv0-39" vertex="1">
          <mxGeometry x="80" width="40" height="40" as="geometry" />
        </mxCell>
        <mxCell id="aAwCayTCrIzlKERKmkv0-42" value="2" style="shape=partialRectangle;html=1;whiteSpace=wrap;connectable=0;overflow=hidden;fillColor=none;top=0;left=0;bottom=0;right=0;" parent="aAwCayTCrIzlKERKmkv0-39" vertex="1">
          <mxGeometry x="120" width="40" height="40" as="geometry" />
        </mxCell>
        <mxCell id="aAwCayTCrIzlKERKmkv0-43" value="{3}" style="shape=partialRectangle;html=1;whiteSpace=wrap;connectable=0;overflow=hidden;fillColor=none;top=0;left=0;bottom=0;right=0;fontStyle=1" parent="aAwCayTCrIzlKERKmkv0-39" vertex="1">
          <mxGeometry x="160" width="40" height="40" as="geometry" />
        </mxCell>
        <mxCell id="JU6Ls0UAyjR_cwakm41P-6" style="shape=partialRectangle;html=1;whiteSpace=wrap;connectable=0;overflow=hidden;fillColor=none;top=0;left=0;bottom=0;right=0;fontStyle=1" parent="aAwCayTCrIzlKERKmkv0-39" vertex="1">
          <mxGeometry x="200" width="40" height="40" as="geometry" />
        </mxCell>
        <mxCell id="aAwCayTCrIzlKERKmkv0-45" style="shape=partialRectangle;html=1;whiteSpace=wrap;connectable=0;overflow=hidden;fillColor=none;top=0;left=0;bottom=0;right=0;fontStyle=1" parent="aAwCayTCrIzlKERKmkv0-39" vertex="1">
          <mxGeometry x="240" width="140" height="40" as="geometry" />
        </mxCell>
        <mxCell id="aAwCayTCrIzlKERKmkv0-47" style="shape=partialRectangle;html=1;whiteSpace=wrap;connectable=0;overflow=hidden;fillColor=none;top=0;left=0;bottom=0;right=0;fontStyle=1" parent="aAwCayTCrIzlKERKmkv0-39" vertex="1">
          <mxGeometry x="380" width="90" height="40" as="geometry" />
        </mxCell>
        <mxCell id="aAwCayTCrIzlKERKmkv0-48" style="shape=partialRectangle;html=1;whiteSpace=wrap;connectable=0;overflow=hidden;fillColor=none;top=0;left=0;bottom=0;right=0;fontStyle=1" parent="aAwCayTCrIzlKERKmkv0-39" vertex="1">
          <mxGeometry x="470" width="80" height="40" as="geometry" />
        </mxCell>
        <mxCell id="JU6Ls0UAyjR_cwakm41P-15" style="shape=partialRectangle;html=1;whiteSpace=wrap;connectable=0;overflow=hidden;fillColor=none;top=0;left=0;bottom=0;right=0;fontStyle=1" parent="aAwCayTCrIzlKERKmkv0-39" vertex="1">
          <mxGeometry x="550" width="80" height="40" as="geometry" />
        </mxCell>
        <mxCell id="JU6Ls0UAyjR_cwakm41P-34" style="shape=partialRectangle;html=1;whiteSpace=wrap;connectable=0;overflow=hidden;fillColor=none;top=0;left=0;bottom=0;right=0;fontStyle=1" parent="aAwCayTCrIzlKERKmkv0-39" vertex="1">
          <mxGeometry x="630" width="100" height="40" as="geometry" />
        </mxCell>
        <mxCell id="JU6Ls0UAyjR_cwakm41P-43" style="shape=partialRectangle;html=1;whiteSpace=wrap;connectable=0;overflow=hidden;fillColor=none;top=0;left=0;bottom=0;right=0;fontStyle=1" parent="aAwCayTCrIzlKERKmkv0-39" vertex="1">
          <mxGeometry x="730" width="110" height="40" as="geometry" />
        </mxCell>
        <mxCell id="JU6Ls0UAyjR_cwakm41P-103" style="shape=partialRectangle;html=1;whiteSpace=wrap;connectable=0;overflow=hidden;fillColor=none;top=0;left=0;bottom=0;right=0;fontStyle=1" parent="aAwCayTCrIzlKERKmkv0-39" vertex="1">
          <mxGeometry x="840" width="110" height="40" as="geometry" />
        </mxCell>
        <mxCell id="JU6Ls0UAyjR_cwakm41P-91" style="shape=partialRectangle;html=1;whiteSpace=wrap;connectable=0;overflow=hidden;fillColor=none;top=0;left=0;bottom=0;right=0;fontStyle=1" parent="aAwCayTCrIzlKERKmkv0-39" vertex="1">
          <mxGeometry x="950" width="100" height="40" as="geometry" />
        </mxCell>
        <mxCell id="JU6Ls0UAyjR_cwakm41P-145" style="shape=partialRectangle;html=1;whiteSpace=wrap;connectable=0;overflow=hidden;fillColor=none;top=0;left=0;bottom=0;right=0;fontStyle=1" parent="aAwCayTCrIzlKERKmkv0-39" vertex="1">
          <mxGeometry x="1050" width="140" height="40" as="geometry" />
        </mxCell>
        <mxCell id="aAwCayTCrIzlKERKmkv0-244" style="shape=partialRectangle;html=1;whiteSpace=wrap;connectable=0;overflow=hidden;fillColor=none;top=0;left=0;bottom=0;right=0;fontStyle=1" parent="aAwCayTCrIzlKERKmkv0-39" vertex="1">
          <mxGeometry x="1190" width="230" height="40" as="geometry" />
        </mxCell>
        <mxCell id="aAwCayTCrIzlKERKmkv0-51" style="shape=partialRectangle;html=1;whiteSpace=wrap;collapsible=0;dropTarget=0;pointerEvents=0;fillColor=none;top=0;left=0;bottom=0;right=0;points=[[0,0.5],[1,0.5]];portConstraint=eastwest;" parent="aAwCayTCrIzlKERKmkv0-2" vertex="1">
          <mxGeometry y="160" width="1420" height="40" as="geometry" />
        </mxCell>
        <mxCell id="aAwCayTCrIzlKERKmkv0-52" value="4" style="shape=partialRectangle;html=1;whiteSpace=wrap;connectable=0;overflow=hidden;fillColor=none;top=0;left=0;bottom=0;right=0;" parent="aAwCayTCrIzlKERKmkv0-51" vertex="1">
          <mxGeometry width="80" height="40" as="geometry" />
        </mxCell>
        <mxCell id="aAwCayTCrIzlKERKmkv0-53" value="10" style="shape=partialRectangle;html=1;whiteSpace=wrap;connectable=0;overflow=hidden;fillColor=none;top=0;left=0;bottom=0;right=0;" parent="aAwCayTCrIzlKERKmkv0-51" vertex="1">
          <mxGeometry x="80" width="40" height="40" as="geometry" />
        </mxCell>
        <mxCell id="aAwCayTCrIzlKERKmkv0-54" value="2" style="shape=partialRectangle;html=1;whiteSpace=wrap;connectable=0;overflow=hidden;fillColor=none;top=0;left=0;bottom=0;right=0;" parent="aAwCayTCrIzlKERKmkv0-51" vertex="1">
          <mxGeometry x="120" width="40" height="40" as="geometry" />
        </mxCell>
        <mxCell id="aAwCayTCrIzlKERKmkv0-55" value="&lt;span style=&quot;font-weight: normal&quot;&gt;3&lt;/span&gt;" style="shape=partialRectangle;html=1;whiteSpace=wrap;connectable=0;overflow=hidden;fillColor=none;top=0;left=0;bottom=0;right=0;fontStyle=1" parent="aAwCayTCrIzlKERKmkv0-51" vertex="1">
          <mxGeometry x="160" width="40" height="40" as="geometry" />
        </mxCell>
        <mxCell id="JU6Ls0UAyjR_cwakm41P-7" value="{4}" style="shape=partialRectangle;html=1;whiteSpace=wrap;connectable=0;overflow=hidden;fillColor=none;top=0;left=0;bottom=0;right=0;fontStyle=1" parent="aAwCayTCrIzlKERKmkv0-51" vertex="1">
          <mxGeometry x="200" width="40" height="40" as="geometry" />
        </mxCell>
        <mxCell id="aAwCayTCrIzlKERKmkv0-57" value="" style="shape=partialRectangle;html=1;whiteSpace=wrap;connectable=0;overflow=hidden;fillColor=none;top=0;left=0;bottom=0;right=0;fontStyle=1" parent="aAwCayTCrIzlKERKmkv0-51" vertex="1">
          <mxGeometry x="240" width="140" height="40" as="geometry" />
        </mxCell>
        <mxCell id="aAwCayTCrIzlKERKmkv0-59" style="shape=partialRectangle;html=1;whiteSpace=wrap;connectable=0;overflow=hidden;fillColor=none;top=0;left=0;bottom=0;right=0;fontStyle=1" parent="aAwCayTCrIzlKERKmkv0-51" vertex="1">
          <mxGeometry x="380" width="90" height="40" as="geometry" />
        </mxCell>
        <mxCell id="aAwCayTCrIzlKERKmkv0-60" style="shape=partialRectangle;html=1;whiteSpace=wrap;connectable=0;overflow=hidden;fillColor=none;top=0;left=0;bottom=0;right=0;fontStyle=1" parent="aAwCayTCrIzlKERKmkv0-51" vertex="1">
          <mxGeometry x="470" width="80" height="40" as="geometry" />
        </mxCell>
        <mxCell id="JU6Ls0UAyjR_cwakm41P-16" style="shape=partialRectangle;html=1;whiteSpace=wrap;connectable=0;overflow=hidden;fillColor=none;top=0;left=0;bottom=0;right=0;fontStyle=1" parent="aAwCayTCrIzlKERKmkv0-51" vertex="1">
          <mxGeometry x="550" width="80" height="40" as="geometry" />
        </mxCell>
        <mxCell id="JU6Ls0UAyjR_cwakm41P-35" style="shape=partialRectangle;html=1;whiteSpace=wrap;connectable=0;overflow=hidden;fillColor=none;top=0;left=0;bottom=0;right=0;fontStyle=1" parent="aAwCayTCrIzlKERKmkv0-51" vertex="1">
          <mxGeometry x="630" width="100" height="40" as="geometry" />
        </mxCell>
        <mxCell id="JU6Ls0UAyjR_cwakm41P-44" style="shape=partialRectangle;html=1;whiteSpace=wrap;connectable=0;overflow=hidden;fillColor=none;top=0;left=0;bottom=0;right=0;fontStyle=1" parent="aAwCayTCrIzlKERKmkv0-51" vertex="1">
          <mxGeometry x="730" width="110" height="40" as="geometry" />
        </mxCell>
        <mxCell id="JU6Ls0UAyjR_cwakm41P-104" style="shape=partialRectangle;html=1;whiteSpace=wrap;connectable=0;overflow=hidden;fillColor=none;top=0;left=0;bottom=0;right=0;fontStyle=1" parent="aAwCayTCrIzlKERKmkv0-51" vertex="1">
          <mxGeometry x="840" width="110" height="40" as="geometry" />
        </mxCell>
        <mxCell id="JU6Ls0UAyjR_cwakm41P-92" style="shape=partialRectangle;html=1;whiteSpace=wrap;connectable=0;overflow=hidden;fillColor=none;top=0;left=0;bottom=0;right=0;fontStyle=1" parent="aAwCayTCrIzlKERKmkv0-51" vertex="1">
          <mxGeometry x="950" width="100" height="40" as="geometry" />
        </mxCell>
        <mxCell id="JU6Ls0UAyjR_cwakm41P-146" style="shape=partialRectangle;html=1;whiteSpace=wrap;connectable=0;overflow=hidden;fillColor=none;top=0;left=0;bottom=0;right=0;fontStyle=1" parent="aAwCayTCrIzlKERKmkv0-51" vertex="1">
          <mxGeometry x="1050" width="140" height="40" as="geometry" />
        </mxCell>
        <mxCell id="aAwCayTCrIzlKERKmkv0-245" style="shape=partialRectangle;html=1;whiteSpace=wrap;connectable=0;overflow=hidden;fillColor=none;top=0;left=0;bottom=0;right=0;fontStyle=1" parent="aAwCayTCrIzlKERKmkv0-51" vertex="1">
          <mxGeometry x="1190" width="230" height="40" as="geometry" />
        </mxCell>
        <mxCell id="aAwCayTCrIzlKERKmkv0-63" style="shape=partialRectangle;html=1;whiteSpace=wrap;collapsible=0;dropTarget=0;pointerEvents=0;fillColor=none;top=0;left=0;bottom=0;right=0;points=[[0,0.5],[1,0.5]];portConstraint=eastwest;" parent="aAwCayTCrIzlKERKmkv0-2" vertex="1">
          <mxGeometry y="200" width="1420" height="40" as="geometry" />
        </mxCell>
        <mxCell id="aAwCayTCrIzlKERKmkv0-64" value="5" style="shape=partialRectangle;html=1;whiteSpace=wrap;connectable=0;overflow=hidden;fillColor=none;top=0;left=0;bottom=0;right=0;" parent="aAwCayTCrIzlKERKmkv0-63" vertex="1">
          <mxGeometry width="80" height="40" as="geometry" />
        </mxCell>
        <mxCell id="aAwCayTCrIzlKERKmkv0-65" value="10" style="shape=partialRectangle;html=1;whiteSpace=wrap;connectable=0;overflow=hidden;fillColor=none;top=0;left=0;bottom=0;right=0;" parent="aAwCayTCrIzlKERKmkv0-63" vertex="1">
          <mxGeometry x="80" width="40" height="40" as="geometry" />
        </mxCell>
        <mxCell id="aAwCayTCrIzlKERKmkv0-66" value="2" style="shape=partialRectangle;html=1;whiteSpace=wrap;connectable=0;overflow=hidden;fillColor=none;top=0;left=0;bottom=0;right=0;" parent="aAwCayTCrIzlKERKmkv0-63" vertex="1">
          <mxGeometry x="120" width="40" height="40" as="geometry" />
        </mxCell>
        <mxCell id="aAwCayTCrIzlKERKmkv0-67" value="&lt;span style=&quot;font-weight: normal&quot;&gt;3&lt;/span&gt;" style="shape=partialRectangle;html=1;whiteSpace=wrap;connectable=0;overflow=hidden;fillColor=none;top=0;left=0;bottom=0;right=0;fontStyle=1" parent="aAwCayTCrIzlKERKmkv0-63" vertex="1">
          <mxGeometry x="160" width="40" height="40" as="geometry" />
        </mxCell>
        <mxCell id="JU6Ls0UAyjR_cwakm41P-8" value="&lt;span style=&quot;font-weight: normal&quot;&gt;4&lt;/span&gt;" style="shape=partialRectangle;html=1;whiteSpace=wrap;connectable=0;overflow=hidden;fillColor=none;top=0;left=0;bottom=0;right=0;fontStyle=1" parent="aAwCayTCrIzlKERKmkv0-63" vertex="1">
          <mxGeometry x="200" width="40" height="40" as="geometry" />
        </mxCell>
        <mxCell id="aAwCayTCrIzlKERKmkv0-69" value="(e_r2*e_r3)/(e_r2+e_r3)" style="shape=partialRectangle;html=1;whiteSpace=wrap;connectable=0;overflow=hidden;fillColor=none;top=0;left=0;bottom=0;right=0;fontStyle=1" parent="aAwCayTCrIzlKERKmkv0-63" vertex="1">
          <mxGeometry x="240" width="140" height="40" as="geometry" />
        </mxCell>
        <mxCell id="aAwCayTCrIzlKERKmkv0-71" value="" style="shape=partialRectangle;html=1;whiteSpace=wrap;connectable=0;overflow=hidden;fillColor=none;top=0;left=0;bottom=0;right=0;fontStyle=1" parent="aAwCayTCrIzlKERKmkv0-63" vertex="1">
          <mxGeometry x="380" width="90" height="40" as="geometry" />
        </mxCell>
        <mxCell id="aAwCayTCrIzlKERKmkv0-72" style="shape=partialRectangle;html=1;whiteSpace=wrap;connectable=0;overflow=hidden;fillColor=none;top=0;left=0;bottom=0;right=0;fontStyle=1" parent="aAwCayTCrIzlKERKmkv0-63" vertex="1">
          <mxGeometry x="470" width="80" height="40" as="geometry" />
        </mxCell>
        <mxCell id="JU6Ls0UAyjR_cwakm41P-17" style="shape=partialRectangle;html=1;whiteSpace=wrap;connectable=0;overflow=hidden;fillColor=none;top=0;left=0;bottom=0;right=0;fontStyle=1" parent="aAwCayTCrIzlKERKmkv0-63" vertex="1">
          <mxGeometry x="550" width="80" height="40" as="geometry" />
        </mxCell>
        <mxCell id="JU6Ls0UAyjR_cwakm41P-36" style="shape=partialRectangle;html=1;whiteSpace=wrap;connectable=0;overflow=hidden;fillColor=none;top=0;left=0;bottom=0;right=0;fontStyle=1" parent="aAwCayTCrIzlKERKmkv0-63" vertex="1">
          <mxGeometry x="630" width="100" height="40" as="geometry" />
        </mxCell>
        <mxCell id="JU6Ls0UAyjR_cwakm41P-45" style="shape=partialRectangle;html=1;whiteSpace=wrap;connectable=0;overflow=hidden;fillColor=none;top=0;left=0;bottom=0;right=0;fontStyle=1" parent="aAwCayTCrIzlKERKmkv0-63" vertex="1">
          <mxGeometry x="730" width="110" height="40" as="geometry" />
        </mxCell>
        <mxCell id="JU6Ls0UAyjR_cwakm41P-105" style="shape=partialRectangle;html=1;whiteSpace=wrap;connectable=0;overflow=hidden;fillColor=none;top=0;left=0;bottom=0;right=0;fontStyle=1" parent="aAwCayTCrIzlKERKmkv0-63" vertex="1">
          <mxGeometry x="840" width="110" height="40" as="geometry" />
        </mxCell>
        <mxCell id="JU6Ls0UAyjR_cwakm41P-93" style="shape=partialRectangle;html=1;whiteSpace=wrap;connectable=0;overflow=hidden;fillColor=none;top=0;left=0;bottom=0;right=0;fontStyle=1" parent="aAwCayTCrIzlKERKmkv0-63" vertex="1">
          <mxGeometry x="950" width="100" height="40" as="geometry" />
        </mxCell>
        <mxCell id="JU6Ls0UAyjR_cwakm41P-147" style="shape=partialRectangle;html=1;whiteSpace=wrap;connectable=0;overflow=hidden;fillColor=none;top=0;left=0;bottom=0;right=0;fontStyle=1" parent="aAwCayTCrIzlKERKmkv0-63" vertex="1">
          <mxGeometry x="1050" width="140" height="40" as="geometry" />
        </mxCell>
        <mxCell id="aAwCayTCrIzlKERKmkv0-246" style="shape=partialRectangle;html=1;whiteSpace=wrap;connectable=0;overflow=hidden;fillColor=none;top=0;left=0;bottom=0;right=0;fontStyle=1" parent="aAwCayTCrIzlKERKmkv0-63" vertex="1">
          <mxGeometry x="1190" width="230" height="40" as="geometry" />
        </mxCell>
        <mxCell id="aAwCayTCrIzlKERKmkv0-75" style="shape=partialRectangle;html=1;whiteSpace=wrap;collapsible=0;dropTarget=0;pointerEvents=0;fillColor=none;top=0;left=0;bottom=0;right=0;points=[[0,0.5],[1,0.5]];portConstraint=eastwest;" parent="aAwCayTCrIzlKERKmkv0-2" vertex="1">
          <mxGeometry y="240" width="1420" height="40" as="geometry" />
        </mxCell>
        <mxCell id="aAwCayTCrIzlKERKmkv0-76" value="6" style="shape=partialRectangle;html=1;whiteSpace=wrap;connectable=0;overflow=hidden;fillColor=none;top=0;left=0;bottom=0;right=0;" parent="aAwCayTCrIzlKERKmkv0-75" vertex="1">
          <mxGeometry width="80" height="40" as="geometry" />
        </mxCell>
        <mxCell id="aAwCayTCrIzlKERKmkv0-77" value="10" style="shape=partialRectangle;html=1;whiteSpace=wrap;connectable=0;overflow=hidden;fillColor=none;top=0;left=0;bottom=0;right=0;" parent="aAwCayTCrIzlKERKmkv0-75" vertex="1">
          <mxGeometry x="80" width="40" height="40" as="geometry" />
        </mxCell>
        <mxCell id="aAwCayTCrIzlKERKmkv0-78" value="2" style="shape=partialRectangle;html=1;whiteSpace=wrap;connectable=0;overflow=hidden;fillColor=none;top=0;left=0;bottom=0;right=0;" parent="aAwCayTCrIzlKERKmkv0-75" vertex="1">
          <mxGeometry x="120" width="40" height="40" as="geometry" />
        </mxCell>
        <mxCell id="aAwCayTCrIzlKERKmkv0-79" value="&lt;span style=&quot;font-weight: normal&quot;&gt;3&lt;/span&gt;" style="shape=partialRectangle;html=1;whiteSpace=wrap;connectable=0;overflow=hidden;fillColor=none;top=0;left=0;bottom=0;right=0;fontStyle=1" parent="aAwCayTCrIzlKERKmkv0-75" vertex="1">
          <mxGeometry x="160" width="40" height="40" as="geometry" />
        </mxCell>
        <mxCell id="JU6Ls0UAyjR_cwakm41P-9" value="&lt;span style=&quot;font-weight: normal&quot;&gt;4&lt;/span&gt;" style="shape=partialRectangle;html=1;whiteSpace=wrap;connectable=0;overflow=hidden;fillColor=none;top=0;left=0;bottom=0;right=0;fontStyle=1" parent="aAwCayTCrIzlKERKmkv0-75" vertex="1">
          <mxGeometry x="200" width="40" height="40" as="geometry" />
        </mxCell>
        <mxCell id="aAwCayTCrIzlKERKmkv0-81" value="&lt;span style=&quot;font-weight: normal&quot;&gt;1,71&lt;/span&gt;" style="shape=partialRectangle;html=1;whiteSpace=wrap;connectable=0;overflow=hidden;fillColor=none;top=0;left=0;bottom=0;right=0;fontStyle=1" parent="aAwCayTCrIzlKERKmkv0-75" vertex="1">
          <mxGeometry x="240" width="140" height="40" as="geometry" />
        </mxCell>
        <mxCell id="aAwCayTCrIzlKERKmkv0-83" value="e_r1+ra" style="shape=partialRectangle;html=1;whiteSpace=wrap;connectable=0;overflow=hidden;fillColor=none;top=0;left=0;bottom=0;right=0;fontStyle=1" parent="aAwCayTCrIzlKERKmkv0-75" vertex="1">
          <mxGeometry x="380" width="90" height="40" as="geometry" />
        </mxCell>
        <mxCell id="aAwCayTCrIzlKERKmkv0-84" value="" style="shape=partialRectangle;html=1;whiteSpace=wrap;connectable=0;overflow=hidden;fillColor=none;top=0;left=0;bottom=0;right=0;fontStyle=1" parent="aAwCayTCrIzlKERKmkv0-75" vertex="1">
          <mxGeometry x="470" width="80" height="40" as="geometry" />
        </mxCell>
        <mxCell id="JU6Ls0UAyjR_cwakm41P-18" style="shape=partialRectangle;html=1;whiteSpace=wrap;connectable=0;overflow=hidden;fillColor=none;top=0;left=0;bottom=0;right=0;fontStyle=1" parent="aAwCayTCrIzlKERKmkv0-75" vertex="1">
          <mxGeometry x="550" width="80" height="40" as="geometry" />
        </mxCell>
        <mxCell id="JU6Ls0UAyjR_cwakm41P-37" style="shape=partialRectangle;html=1;whiteSpace=wrap;connectable=0;overflow=hidden;fillColor=none;top=0;left=0;bottom=0;right=0;fontStyle=1" parent="aAwCayTCrIzlKERKmkv0-75" vertex="1">
          <mxGeometry x="630" width="100" height="40" as="geometry" />
        </mxCell>
        <mxCell id="JU6Ls0UAyjR_cwakm41P-46" style="shape=partialRectangle;html=1;whiteSpace=wrap;connectable=0;overflow=hidden;fillColor=none;top=0;left=0;bottom=0;right=0;fontStyle=1" parent="aAwCayTCrIzlKERKmkv0-75" vertex="1">
          <mxGeometry x="730" width="110" height="40" as="geometry" />
        </mxCell>
        <mxCell id="JU6Ls0UAyjR_cwakm41P-106" style="shape=partialRectangle;html=1;whiteSpace=wrap;connectable=0;overflow=hidden;fillColor=none;top=0;left=0;bottom=0;right=0;fontStyle=1" parent="aAwCayTCrIzlKERKmkv0-75" vertex="1">
          <mxGeometry x="840" width="110" height="40" as="geometry" />
        </mxCell>
        <mxCell id="JU6Ls0UAyjR_cwakm41P-94" style="shape=partialRectangle;html=1;whiteSpace=wrap;connectable=0;overflow=hidden;fillColor=none;top=0;left=0;bottom=0;right=0;fontStyle=1" parent="aAwCayTCrIzlKERKmkv0-75" vertex="1">
          <mxGeometry x="950" width="100" height="40" as="geometry" />
        </mxCell>
        <mxCell id="JU6Ls0UAyjR_cwakm41P-148" style="shape=partialRectangle;html=1;whiteSpace=wrap;connectable=0;overflow=hidden;fillColor=none;top=0;left=0;bottom=0;right=0;fontStyle=1" parent="aAwCayTCrIzlKERKmkv0-75" vertex="1">
          <mxGeometry x="1050" width="140" height="40" as="geometry" />
        </mxCell>
        <mxCell id="aAwCayTCrIzlKERKmkv0-247" style="shape=partialRectangle;html=1;whiteSpace=wrap;connectable=0;overflow=hidden;fillColor=none;top=0;left=0;bottom=0;right=0;fontStyle=1" parent="aAwCayTCrIzlKERKmkv0-75" vertex="1">
          <mxGeometry x="1190" width="230" height="40" as="geometry" />
        </mxCell>
        <mxCell id="aAwCayTCrIzlKERKmkv0-87" style="shape=partialRectangle;html=1;whiteSpace=wrap;collapsible=0;dropTarget=0;pointerEvents=0;fillColor=none;top=0;left=0;bottom=0;right=0;points=[[0,0.5],[1,0.5]];portConstraint=eastwest;" parent="aAwCayTCrIzlKERKmkv0-2" vertex="1">
          <mxGeometry y="280" width="1420" height="40" as="geometry" />
        </mxCell>
        <mxCell id="aAwCayTCrIzlKERKmkv0-88" value="7" style="shape=partialRectangle;html=1;whiteSpace=wrap;connectable=0;overflow=hidden;fillColor=none;top=0;left=0;bottom=0;right=0;" parent="aAwCayTCrIzlKERKmkv0-87" vertex="1">
          <mxGeometry width="80" height="40" as="geometry" />
        </mxCell>
        <mxCell id="aAwCayTCrIzlKERKmkv0-89" value="10" style="shape=partialRectangle;html=1;whiteSpace=wrap;connectable=0;overflow=hidden;fillColor=none;top=0;left=0;bottom=0;right=0;" parent="aAwCayTCrIzlKERKmkv0-87" vertex="1">
          <mxGeometry x="80" width="40" height="40" as="geometry" />
        </mxCell>
        <mxCell id="aAwCayTCrIzlKERKmkv0-90" value="2" style="shape=partialRectangle;html=1;whiteSpace=wrap;connectable=0;overflow=hidden;fillColor=none;top=0;left=0;bottom=0;right=0;" parent="aAwCayTCrIzlKERKmkv0-87" vertex="1">
          <mxGeometry x="120" width="40" height="40" as="geometry" />
        </mxCell>
        <mxCell id="aAwCayTCrIzlKERKmkv0-91" value="&lt;span style=&quot;font-weight: normal&quot;&gt;3&lt;/span&gt;" style="shape=partialRectangle;html=1;whiteSpace=wrap;connectable=0;overflow=hidden;fillColor=none;top=0;left=0;bottom=0;right=0;fontStyle=1" parent="aAwCayTCrIzlKERKmkv0-87" vertex="1">
          <mxGeometry x="160" width="40" height="40" as="geometry" />
        </mxCell>
        <mxCell id="JU6Ls0UAyjR_cwakm41P-10" value="&lt;span style=&quot;font-weight: normal&quot;&gt;4&lt;/span&gt;" style="shape=partialRectangle;html=1;whiteSpace=wrap;connectable=0;overflow=hidden;fillColor=none;top=0;left=0;bottom=0;right=0;fontStyle=1" parent="aAwCayTCrIzlKERKmkv0-87" vertex="1">
          <mxGeometry x="200" width="40" height="40" as="geometry" />
        </mxCell>
        <mxCell id="aAwCayTCrIzlKERKmkv0-93" value="&lt;span style=&quot;font-weight: normal&quot;&gt;1,71&lt;/span&gt;" style="shape=partialRectangle;html=1;whiteSpace=wrap;connectable=0;overflow=hidden;fillColor=none;top=0;left=0;bottom=0;right=0;fontStyle=1" parent="aAwCayTCrIzlKERKmkv0-87" vertex="1">
          <mxGeometry x="240" width="140" height="40" as="geometry" />
        </mxCell>
        <mxCell id="aAwCayTCrIzlKERKmkv0-95" value="&lt;span style=&quot;font-weight: normal&quot;&gt;3,71&lt;/span&gt;" style="shape=partialRectangle;html=1;whiteSpace=wrap;connectable=0;overflow=hidden;fillColor=none;top=0;left=0;bottom=0;right=0;fontStyle=1" parent="aAwCayTCrIzlKERKmkv0-87" vertex="1">
          <mxGeometry x="380" width="90" height="40" as="geometry" />
        </mxCell>
        <mxCell id="aAwCayTCrIzlKERKmkv0-96" value="e_E1/rt" style="shape=partialRectangle;html=1;whiteSpace=wrap;connectable=0;overflow=hidden;fillColor=none;top=0;left=0;bottom=0;right=0;fontStyle=1" parent="aAwCayTCrIzlKERKmkv0-87" vertex="1">
          <mxGeometry x="470" width="80" height="40" as="geometry" />
        </mxCell>
        <mxCell id="JU6Ls0UAyjR_cwakm41P-19" style="shape=partialRectangle;html=1;whiteSpace=wrap;connectable=0;overflow=hidden;fillColor=none;top=0;left=0;bottom=0;right=0;fontStyle=1" parent="aAwCayTCrIzlKERKmkv0-87" vertex="1">
          <mxGeometry x="550" width="80" height="40" as="geometry" />
        </mxCell>
        <mxCell id="JU6Ls0UAyjR_cwakm41P-38" style="shape=partialRectangle;html=1;whiteSpace=wrap;connectable=0;overflow=hidden;fillColor=none;top=0;left=0;bottom=0;right=0;fontStyle=1" parent="aAwCayTCrIzlKERKmkv0-87" vertex="1">
          <mxGeometry x="630" width="100" height="40" as="geometry" />
        </mxCell>
        <mxCell id="JU6Ls0UAyjR_cwakm41P-47" style="shape=partialRectangle;html=1;whiteSpace=wrap;connectable=0;overflow=hidden;fillColor=none;top=0;left=0;bottom=0;right=0;fontStyle=1" parent="aAwCayTCrIzlKERKmkv0-87" vertex="1">
          <mxGeometry x="730" width="110" height="40" as="geometry" />
        </mxCell>
        <mxCell id="JU6Ls0UAyjR_cwakm41P-107" style="shape=partialRectangle;html=1;whiteSpace=wrap;connectable=0;overflow=hidden;fillColor=none;top=0;left=0;bottom=0;right=0;fontStyle=1" parent="aAwCayTCrIzlKERKmkv0-87" vertex="1">
          <mxGeometry x="840" width="110" height="40" as="geometry" />
        </mxCell>
        <mxCell id="JU6Ls0UAyjR_cwakm41P-95" style="shape=partialRectangle;html=1;whiteSpace=wrap;connectable=0;overflow=hidden;fillColor=none;top=0;left=0;bottom=0;right=0;fontStyle=1" parent="aAwCayTCrIzlKERKmkv0-87" vertex="1">
          <mxGeometry x="950" width="100" height="40" as="geometry" />
        </mxCell>
        <mxCell id="JU6Ls0UAyjR_cwakm41P-149" style="shape=partialRectangle;html=1;whiteSpace=wrap;connectable=0;overflow=hidden;fillColor=none;top=0;left=0;bottom=0;right=0;fontStyle=1" parent="aAwCayTCrIzlKERKmkv0-87" vertex="1">
          <mxGeometry x="1050" width="140" height="40" as="geometry" />
        </mxCell>
        <mxCell id="aAwCayTCrIzlKERKmkv0-248" value="" style="shape=partialRectangle;html=1;whiteSpace=wrap;connectable=0;overflow=hidden;fillColor=none;top=0;left=0;bottom=0;right=0;fontStyle=1" parent="aAwCayTCrIzlKERKmkv0-87" vertex="1">
          <mxGeometry x="1190" width="230" height="40" as="geometry" />
        </mxCell>
        <mxCell id="JU6Ls0UAyjR_cwakm41P-20" style="shape=partialRectangle;html=1;whiteSpace=wrap;collapsible=0;dropTarget=0;pointerEvents=0;fillColor=none;top=0;left=0;bottom=0;right=0;points=[[0,0.5],[1,0.5]];portConstraint=eastwest;" parent="aAwCayTCrIzlKERKmkv0-2" vertex="1">
          <mxGeometry y="320" width="1420" height="40" as="geometry" />
        </mxCell>
        <mxCell id="JU6Ls0UAyjR_cwakm41P-21" value="8" style="shape=partialRectangle;html=1;whiteSpace=wrap;connectable=0;overflow=hidden;fillColor=none;top=0;left=0;bottom=0;right=0;" parent="JU6Ls0UAyjR_cwakm41P-20" vertex="1">
          <mxGeometry width="80" height="40" as="geometry" />
        </mxCell>
        <mxCell id="JU6Ls0UAyjR_cwakm41P-22" value="10&lt;br&gt;" style="shape=partialRectangle;html=1;whiteSpace=wrap;connectable=0;overflow=hidden;fillColor=none;top=0;left=0;bottom=0;right=0;" parent="JU6Ls0UAyjR_cwakm41P-20" vertex="1">
          <mxGeometry x="80" width="40" height="40" as="geometry" />
        </mxCell>
        <mxCell id="JU6Ls0UAyjR_cwakm41P-23" value="2" style="shape=partialRectangle;html=1;whiteSpace=wrap;connectable=0;overflow=hidden;fillColor=none;top=0;left=0;bottom=0;right=0;" parent="JU6Ls0UAyjR_cwakm41P-20" vertex="1">
          <mxGeometry x="120" width="40" height="40" as="geometry" />
        </mxCell>
        <mxCell id="JU6Ls0UAyjR_cwakm41P-24" value="3" style="shape=partialRectangle;html=1;whiteSpace=wrap;connectable=0;overflow=hidden;fillColor=none;top=0;left=0;bottom=0;right=0;fontStyle=1" parent="JU6Ls0UAyjR_cwakm41P-20" vertex="1">
          <mxGeometry x="160" width="40" height="40" as="geometry" />
        </mxCell>
        <mxCell id="JU6Ls0UAyjR_cwakm41P-25" value="&lt;span style=&quot;font-weight: normal&quot;&gt;4&lt;/span&gt;" style="shape=partialRectangle;html=1;whiteSpace=wrap;connectable=0;overflow=hidden;fillColor=none;top=0;left=0;bottom=0;right=0;fontStyle=1" parent="JU6Ls0UAyjR_cwakm41P-20" vertex="1">
          <mxGeometry x="200" width="40" height="40" as="geometry" />
        </mxCell>
        <mxCell id="JU6Ls0UAyjR_cwakm41P-26" value="&lt;span style=&quot;font-weight: 400&quot;&gt;1,71&lt;/span&gt;" style="shape=partialRectangle;html=1;whiteSpace=wrap;connectable=0;overflow=hidden;fillColor=none;top=0;left=0;bottom=0;right=0;fontStyle=1" parent="JU6Ls0UAyjR_cwakm41P-20" vertex="1">
          <mxGeometry x="240" width="140" height="40" as="geometry" />
        </mxCell>
        <mxCell id="JU6Ls0UAyjR_cwakm41P-27" value="&lt;span style=&quot;font-weight: 400&quot;&gt;3,71&lt;/span&gt;" style="shape=partialRectangle;html=1;whiteSpace=wrap;connectable=0;overflow=hidden;fillColor=none;top=0;left=0;bottom=0;right=0;fontStyle=1" parent="JU6Ls0UAyjR_cwakm41P-20" vertex="1">
          <mxGeometry x="380" width="90" height="40" as="geometry" />
        </mxCell>
        <mxCell id="JU6Ls0UAyjR_cwakm41P-28" value="&lt;span style=&quot;font-weight: normal&quot;&gt;2,7&lt;/span&gt;" style="shape=partialRectangle;html=1;whiteSpace=wrap;connectable=0;overflow=hidden;fillColor=none;top=0;left=0;bottom=0;right=0;fontStyle=1" parent="JU6Ls0UAyjR_cwakm41P-20" vertex="1">
          <mxGeometry x="470" width="80" height="40" as="geometry" />
        </mxCell>
        <mxCell id="JU6Ls0UAyjR_cwakm41P-29" value="ira=it" style="shape=partialRectangle;html=1;whiteSpace=wrap;connectable=0;overflow=hidden;fillColor=none;top=0;left=0;bottom=0;right=0;fontStyle=1" parent="JU6Ls0UAyjR_cwakm41P-20" vertex="1">
          <mxGeometry x="550" width="80" height="40" as="geometry" />
        </mxCell>
        <mxCell id="JU6Ls0UAyjR_cwakm41P-39" style="shape=partialRectangle;html=1;whiteSpace=wrap;connectable=0;overflow=hidden;fillColor=none;top=0;left=0;bottom=0;right=0;fontStyle=1" parent="JU6Ls0UAyjR_cwakm41P-20" vertex="1">
          <mxGeometry x="630" width="100" height="40" as="geometry" />
        </mxCell>
        <mxCell id="JU6Ls0UAyjR_cwakm41P-48" style="shape=partialRectangle;html=1;whiteSpace=wrap;connectable=0;overflow=hidden;fillColor=none;top=0;left=0;bottom=0;right=0;fontStyle=1" parent="JU6Ls0UAyjR_cwakm41P-20" vertex="1">
          <mxGeometry x="730" width="110" height="40" as="geometry" />
        </mxCell>
        <mxCell id="JU6Ls0UAyjR_cwakm41P-108" style="shape=partialRectangle;html=1;whiteSpace=wrap;connectable=0;overflow=hidden;fillColor=none;top=0;left=0;bottom=0;right=0;fontStyle=1" parent="JU6Ls0UAyjR_cwakm41P-20" vertex="1">
          <mxGeometry x="840" width="110" height="40" as="geometry" />
        </mxCell>
        <mxCell id="JU6Ls0UAyjR_cwakm41P-96" style="shape=partialRectangle;html=1;whiteSpace=wrap;connectable=0;overflow=hidden;fillColor=none;top=0;left=0;bottom=0;right=0;fontStyle=1" parent="JU6Ls0UAyjR_cwakm41P-20" vertex="1">
          <mxGeometry x="950" width="100" height="40" as="geometry" />
        </mxCell>
        <mxCell id="JU6Ls0UAyjR_cwakm41P-150" style="shape=partialRectangle;html=1;whiteSpace=wrap;connectable=0;overflow=hidden;fillColor=none;top=0;left=0;bottom=0;right=0;fontStyle=1" parent="JU6Ls0UAyjR_cwakm41P-20" vertex="1">
          <mxGeometry x="1050" width="140" height="40" as="geometry" />
        </mxCell>
        <mxCell id="JU6Ls0UAyjR_cwakm41P-30" style="shape=partialRectangle;html=1;whiteSpace=wrap;connectable=0;overflow=hidden;fillColor=none;top=0;left=0;bottom=0;right=0;fontStyle=1" parent="JU6Ls0UAyjR_cwakm41P-20" vertex="1">
          <mxGeometry x="1190" width="230" height="40" as="geometry" />
        </mxCell>
        <mxCell id="JU6Ls0UAyjR_cwakm41P-49" style="shape=partialRectangle;html=1;whiteSpace=wrap;collapsible=0;dropTarget=0;pointerEvents=0;fillColor=none;top=0;left=0;bottom=0;right=0;points=[[0,0.5],[1,0.5]];portConstraint=eastwest;" parent="aAwCayTCrIzlKERKmkv0-2" vertex="1">
          <mxGeometry y="360" width="1420" height="40" as="geometry" />
        </mxCell>
        <mxCell id="JU6Ls0UAyjR_cwakm41P-50" value="9" style="shape=partialRectangle;html=1;whiteSpace=wrap;connectable=0;overflow=hidden;fillColor=none;top=0;left=0;bottom=0;right=0;" parent="JU6Ls0UAyjR_cwakm41P-49" vertex="1">
          <mxGeometry width="80" height="40" as="geometry" />
        </mxCell>
        <mxCell id="JU6Ls0UAyjR_cwakm41P-51" value="10" style="shape=partialRectangle;html=1;whiteSpace=wrap;connectable=0;overflow=hidden;fillColor=none;top=0;left=0;bottom=0;right=0;" parent="JU6Ls0UAyjR_cwakm41P-49" vertex="1">
          <mxGeometry x="80" width="40" height="40" as="geometry" />
        </mxCell>
        <mxCell id="JU6Ls0UAyjR_cwakm41P-52" value="2" style="shape=partialRectangle;html=1;whiteSpace=wrap;connectable=0;overflow=hidden;fillColor=none;top=0;left=0;bottom=0;right=0;" parent="JU6Ls0UAyjR_cwakm41P-49" vertex="1">
          <mxGeometry x="120" width="40" height="40" as="geometry" />
        </mxCell>
        <mxCell id="JU6Ls0UAyjR_cwakm41P-53" value="3" style="shape=partialRectangle;html=1;whiteSpace=wrap;connectable=0;overflow=hidden;fillColor=none;top=0;left=0;bottom=0;right=0;fontStyle=1" parent="JU6Ls0UAyjR_cwakm41P-49" vertex="1">
          <mxGeometry x="160" width="40" height="40" as="geometry" />
        </mxCell>
        <mxCell id="JU6Ls0UAyjR_cwakm41P-54" value="&lt;span style=&quot;font-weight: normal&quot;&gt;4&lt;/span&gt;" style="shape=partialRectangle;html=1;whiteSpace=wrap;connectable=0;overflow=hidden;fillColor=none;top=0;left=0;bottom=0;right=0;fontStyle=1" parent="JU6Ls0UAyjR_cwakm41P-49" vertex="1">
          <mxGeometry x="200" width="40" height="40" as="geometry" />
        </mxCell>
        <mxCell id="JU6Ls0UAyjR_cwakm41P-55" value="&lt;span style=&quot;font-weight: 400&quot;&gt;1,71&lt;/span&gt;" style="shape=partialRectangle;html=1;whiteSpace=wrap;connectable=0;overflow=hidden;fillColor=none;top=0;left=0;bottom=0;right=0;fontStyle=1" parent="JU6Ls0UAyjR_cwakm41P-49" vertex="1">
          <mxGeometry x="240" width="140" height="40" as="geometry" />
        </mxCell>
        <mxCell id="JU6Ls0UAyjR_cwakm41P-56" value="&lt;span style=&quot;font-weight: 400&quot;&gt;3,71&lt;/span&gt;" style="shape=partialRectangle;html=1;whiteSpace=wrap;connectable=0;overflow=hidden;fillColor=none;top=0;left=0;bottom=0;right=0;fontStyle=1" parent="JU6Ls0UAyjR_cwakm41P-49" vertex="1">
          <mxGeometry x="380" width="90" height="40" as="geometry" />
        </mxCell>
        <mxCell id="JU6Ls0UAyjR_cwakm41P-57" value="&lt;span style=&quot;font-weight: normal&quot;&gt;2,7&lt;/span&gt;" style="shape=partialRectangle;html=1;whiteSpace=wrap;connectable=0;overflow=hidden;fillColor=none;top=0;left=0;bottom=0;right=0;fontStyle=1" parent="JU6Ls0UAyjR_cwakm41P-49" vertex="1">
          <mxGeometry x="470" width="80" height="40" as="geometry" />
        </mxCell>
        <mxCell id="JU6Ls0UAyjR_cwakm41P-58" value="&lt;span style=&quot;font-weight: normal&quot;&gt;2,7&lt;/span&gt;" style="shape=partialRectangle;html=1;whiteSpace=wrap;connectable=0;overflow=hidden;fillColor=none;top=0;left=0;bottom=0;right=0;fontStyle=1" parent="JU6Ls0UAyjR_cwakm41P-49" vertex="1">
          <mxGeometry x="550" width="80" height="40" as="geometry" />
        </mxCell>
        <mxCell id="JU6Ls0UAyjR_cwakm41P-59" value="e_r1*it" style="shape=partialRectangle;html=1;whiteSpace=wrap;connectable=0;overflow=hidden;fillColor=none;top=0;left=0;bottom=0;right=0;fontStyle=1" parent="JU6Ls0UAyjR_cwakm41P-49" vertex="1">
          <mxGeometry x="630" width="100" height="40" as="geometry" />
        </mxCell>
        <mxCell id="JU6Ls0UAyjR_cwakm41P-60" style="shape=partialRectangle;html=1;whiteSpace=wrap;connectable=0;overflow=hidden;fillColor=none;top=0;left=0;bottom=0;right=0;fontStyle=1" parent="JU6Ls0UAyjR_cwakm41P-49" vertex="1">
          <mxGeometry x="730" width="110" height="40" as="geometry" />
        </mxCell>
        <mxCell id="JU6Ls0UAyjR_cwakm41P-109" style="shape=partialRectangle;html=1;whiteSpace=wrap;connectable=0;overflow=hidden;fillColor=none;top=0;left=0;bottom=0;right=0;fontStyle=1" parent="JU6Ls0UAyjR_cwakm41P-49" vertex="1">
          <mxGeometry x="840" width="110" height="40" as="geometry" />
        </mxCell>
        <mxCell id="JU6Ls0UAyjR_cwakm41P-97" style="shape=partialRectangle;html=1;whiteSpace=wrap;connectable=0;overflow=hidden;fillColor=none;top=0;left=0;bottom=0;right=0;fontStyle=1" parent="JU6Ls0UAyjR_cwakm41P-49" vertex="1">
          <mxGeometry x="950" width="100" height="40" as="geometry" />
        </mxCell>
        <mxCell id="JU6Ls0UAyjR_cwakm41P-151" style="shape=partialRectangle;html=1;whiteSpace=wrap;connectable=0;overflow=hidden;fillColor=none;top=0;left=0;bottom=0;right=0;fontStyle=1" parent="JU6Ls0UAyjR_cwakm41P-49" vertex="1">
          <mxGeometry x="1050" width="140" height="40" as="geometry" />
        </mxCell>
        <mxCell id="JU6Ls0UAyjR_cwakm41P-61" style="shape=partialRectangle;html=1;whiteSpace=wrap;connectable=0;overflow=hidden;fillColor=none;top=0;left=0;bottom=0;right=0;fontStyle=1" parent="JU6Ls0UAyjR_cwakm41P-49" vertex="1">
          <mxGeometry x="1190" width="230" height="40" as="geometry" />
        </mxCell>
        <mxCell id="JU6Ls0UAyjR_cwakm41P-75" style="shape=partialRectangle;html=1;whiteSpace=wrap;collapsible=0;dropTarget=0;pointerEvents=0;fillColor=none;top=0;left=0;bottom=0;right=0;points=[[0,0.5],[1,0.5]];portConstraint=eastwest;" parent="aAwCayTCrIzlKERKmkv0-2" vertex="1">
          <mxGeometry y="400" width="1420" height="40" as="geometry" />
        </mxCell>
        <mxCell id="JU6Ls0UAyjR_cwakm41P-76" value="10" style="shape=partialRectangle;html=1;whiteSpace=wrap;connectable=0;overflow=hidden;fillColor=none;top=0;left=0;bottom=0;right=0;" parent="JU6Ls0UAyjR_cwakm41P-75" vertex="1">
          <mxGeometry width="80" height="40" as="geometry" />
        </mxCell>
        <mxCell id="JU6Ls0UAyjR_cwakm41P-77" value="10" style="shape=partialRectangle;html=1;whiteSpace=wrap;connectable=0;overflow=hidden;fillColor=none;top=0;left=0;bottom=0;right=0;" parent="JU6Ls0UAyjR_cwakm41P-75" vertex="1">
          <mxGeometry x="80" width="40" height="40" as="geometry" />
        </mxCell>
        <mxCell id="JU6Ls0UAyjR_cwakm41P-78" value="2" style="shape=partialRectangle;html=1;whiteSpace=wrap;connectable=0;overflow=hidden;fillColor=none;top=0;left=0;bottom=0;right=0;" parent="JU6Ls0UAyjR_cwakm41P-75" vertex="1">
          <mxGeometry x="120" width="40" height="40" as="geometry" />
        </mxCell>
        <mxCell id="JU6Ls0UAyjR_cwakm41P-79" value="3" style="shape=partialRectangle;html=1;whiteSpace=wrap;connectable=0;overflow=hidden;fillColor=none;top=0;left=0;bottom=0;right=0;fontStyle=1" parent="JU6Ls0UAyjR_cwakm41P-75" vertex="1">
          <mxGeometry x="160" width="40" height="40" as="geometry" />
        </mxCell>
        <mxCell id="JU6Ls0UAyjR_cwakm41P-80" value="&lt;span style=&quot;font-weight: normal&quot;&gt;4&lt;/span&gt;" style="shape=partialRectangle;html=1;whiteSpace=wrap;connectable=0;overflow=hidden;fillColor=none;top=0;left=0;bottom=0;right=0;fontStyle=1" parent="JU6Ls0UAyjR_cwakm41P-75" vertex="1">
          <mxGeometry x="200" width="40" height="40" as="geometry" />
        </mxCell>
        <mxCell id="JU6Ls0UAyjR_cwakm41P-81" value="&lt;span style=&quot;font-weight: 400&quot;&gt;1,71&lt;/span&gt;" style="shape=partialRectangle;html=1;whiteSpace=wrap;connectable=0;overflow=hidden;fillColor=none;top=0;left=0;bottom=0;right=0;fontStyle=1" parent="JU6Ls0UAyjR_cwakm41P-75" vertex="1">
          <mxGeometry x="240" width="140" height="40" as="geometry" />
        </mxCell>
        <mxCell id="JU6Ls0UAyjR_cwakm41P-82" value="&lt;span style=&quot;font-weight: 400&quot;&gt;3,71&lt;/span&gt;" style="shape=partialRectangle;html=1;whiteSpace=wrap;connectable=0;overflow=hidden;fillColor=none;top=0;left=0;bottom=0;right=0;fontStyle=1" parent="JU6Ls0UAyjR_cwakm41P-75" vertex="1">
          <mxGeometry x="380" width="90" height="40" as="geometry" />
        </mxCell>
        <mxCell id="JU6Ls0UAyjR_cwakm41P-83" value="&lt;span style=&quot;font-weight: normal&quot;&gt;2,7&lt;/span&gt;" style="shape=partialRectangle;html=1;whiteSpace=wrap;connectable=0;overflow=hidden;fillColor=none;top=0;left=0;bottom=0;right=0;fontStyle=1" parent="JU6Ls0UAyjR_cwakm41P-75" vertex="1">
          <mxGeometry x="470" width="80" height="40" as="geometry" />
        </mxCell>
        <mxCell id="JU6Ls0UAyjR_cwakm41P-84" value="&lt;span style=&quot;font-weight: normal&quot;&gt;2,7&lt;/span&gt;" style="shape=partialRectangle;html=1;whiteSpace=wrap;connectable=0;overflow=hidden;fillColor=none;top=0;left=0;bottom=0;right=0;fontStyle=1" parent="JU6Ls0UAyjR_cwakm41P-75" vertex="1">
          <mxGeometry x="550" width="80" height="40" as="geometry" />
        </mxCell>
        <mxCell id="JU6Ls0UAyjR_cwakm41P-85" value="&lt;span style=&quot;font-weight: normal&quot;&gt;5,4&lt;/span&gt;" style="shape=partialRectangle;html=1;whiteSpace=wrap;connectable=0;overflow=hidden;fillColor=none;top=0;left=0;bottom=0;right=0;fontStyle=1" parent="JU6Ls0UAyjR_cwakm41P-75" vertex="1">
          <mxGeometry x="630" width="100" height="40" as="geometry" />
        </mxCell>
        <mxCell id="JU6Ls0UAyjR_cwakm41P-86" value="ra*it" style="shape=partialRectangle;html=1;whiteSpace=wrap;connectable=0;overflow=hidden;fillColor=none;top=0;left=0;bottom=0;right=0;fontStyle=1" parent="JU6Ls0UAyjR_cwakm41P-75" vertex="1">
          <mxGeometry x="730" width="110" height="40" as="geometry" />
        </mxCell>
        <mxCell id="JU6Ls0UAyjR_cwakm41P-110" style="shape=partialRectangle;html=1;whiteSpace=wrap;connectable=0;overflow=hidden;fillColor=none;top=0;left=0;bottom=0;right=0;fontStyle=1" parent="JU6Ls0UAyjR_cwakm41P-75" vertex="1">
          <mxGeometry x="840" width="110" height="40" as="geometry" />
        </mxCell>
        <mxCell id="JU6Ls0UAyjR_cwakm41P-98" style="shape=partialRectangle;html=1;whiteSpace=wrap;connectable=0;overflow=hidden;fillColor=none;top=0;left=0;bottom=0;right=0;fontStyle=1" parent="JU6Ls0UAyjR_cwakm41P-75" vertex="1">
          <mxGeometry x="950" width="100" height="40" as="geometry" />
        </mxCell>
        <mxCell id="JU6Ls0UAyjR_cwakm41P-152" style="shape=partialRectangle;html=1;whiteSpace=wrap;connectable=0;overflow=hidden;fillColor=none;top=0;left=0;bottom=0;right=0;fontStyle=1" parent="JU6Ls0UAyjR_cwakm41P-75" vertex="1">
          <mxGeometry x="1050" width="140" height="40" as="geometry" />
        </mxCell>
        <mxCell id="JU6Ls0UAyjR_cwakm41P-87" style="shape=partialRectangle;html=1;whiteSpace=wrap;connectable=0;overflow=hidden;fillColor=none;top=0;left=0;bottom=0;right=0;fontStyle=1" parent="JU6Ls0UAyjR_cwakm41P-75" vertex="1">
          <mxGeometry x="1190" width="230" height="40" as="geometry" />
        </mxCell>
        <mxCell id="JU6Ls0UAyjR_cwakm41P-62" style="shape=partialRectangle;html=1;whiteSpace=wrap;collapsible=0;dropTarget=0;pointerEvents=0;fillColor=none;top=0;left=0;bottom=0;right=0;points=[[0,0.5],[1,0.5]];portConstraint=eastwest;" parent="aAwCayTCrIzlKERKmkv0-2" vertex="1">
          <mxGeometry y="440" width="1420" height="40" as="geometry" />
        </mxCell>
        <mxCell id="JU6Ls0UAyjR_cwakm41P-63" value="11" style="shape=partialRectangle;html=1;whiteSpace=wrap;connectable=0;overflow=hidden;fillColor=none;top=0;left=0;bottom=0;right=0;" parent="JU6Ls0UAyjR_cwakm41P-62" vertex="1">
          <mxGeometry width="80" height="40" as="geometry" />
        </mxCell>
        <mxCell id="JU6Ls0UAyjR_cwakm41P-64" value="10" style="shape=partialRectangle;html=1;whiteSpace=wrap;connectable=0;overflow=hidden;fillColor=none;top=0;left=0;bottom=0;right=0;" parent="JU6Ls0UAyjR_cwakm41P-62" vertex="1">
          <mxGeometry x="80" width="40" height="40" as="geometry" />
        </mxCell>
        <mxCell id="JU6Ls0UAyjR_cwakm41P-65" value="2" style="shape=partialRectangle;html=1;whiteSpace=wrap;connectable=0;overflow=hidden;fillColor=none;top=0;left=0;bottom=0;right=0;" parent="JU6Ls0UAyjR_cwakm41P-62" vertex="1">
          <mxGeometry x="120" width="40" height="40" as="geometry" />
        </mxCell>
        <mxCell id="JU6Ls0UAyjR_cwakm41P-66" value="3" style="shape=partialRectangle;html=1;whiteSpace=wrap;connectable=0;overflow=hidden;fillColor=none;top=0;left=0;bottom=0;right=0;fontStyle=1" parent="JU6Ls0UAyjR_cwakm41P-62" vertex="1">
          <mxGeometry x="160" width="40" height="40" as="geometry" />
        </mxCell>
        <mxCell id="JU6Ls0UAyjR_cwakm41P-67" value="&lt;span style=&quot;font-weight: normal&quot;&gt;4&lt;/span&gt;" style="shape=partialRectangle;html=1;whiteSpace=wrap;connectable=0;overflow=hidden;fillColor=none;top=0;left=0;bottom=0;right=0;fontStyle=1" parent="JU6Ls0UAyjR_cwakm41P-62" vertex="1">
          <mxGeometry x="200" width="40" height="40" as="geometry" />
        </mxCell>
        <mxCell id="JU6Ls0UAyjR_cwakm41P-68" value="&lt;span style=&quot;font-weight: 400&quot;&gt;1,71&lt;/span&gt;" style="shape=partialRectangle;html=1;whiteSpace=wrap;connectable=0;overflow=hidden;fillColor=none;top=0;left=0;bottom=0;right=0;fontStyle=1" parent="JU6Ls0UAyjR_cwakm41P-62" vertex="1">
          <mxGeometry x="240" width="140" height="40" as="geometry" />
        </mxCell>
        <mxCell id="JU6Ls0UAyjR_cwakm41P-69" value="&lt;span style=&quot;font-weight: 400&quot;&gt;3,71&lt;/span&gt;" style="shape=partialRectangle;html=1;whiteSpace=wrap;connectable=0;overflow=hidden;fillColor=none;top=0;left=0;bottom=0;right=0;fontStyle=1" parent="JU6Ls0UAyjR_cwakm41P-62" vertex="1">
          <mxGeometry x="380" width="90" height="40" as="geometry" />
        </mxCell>
        <mxCell id="JU6Ls0UAyjR_cwakm41P-70" value="&lt;span style=&quot;font-weight: normal&quot;&gt;2,7&lt;/span&gt;" style="shape=partialRectangle;html=1;whiteSpace=wrap;connectable=0;overflow=hidden;fillColor=none;top=0;left=0;bottom=0;right=0;fontStyle=1" parent="JU6Ls0UAyjR_cwakm41P-62" vertex="1">
          <mxGeometry x="470" width="80" height="40" as="geometry" />
        </mxCell>
        <mxCell id="JU6Ls0UAyjR_cwakm41P-71" value="&lt;span style=&quot;font-weight: normal&quot;&gt;2,7&lt;/span&gt;" style="shape=partialRectangle;html=1;whiteSpace=wrap;connectable=0;overflow=hidden;fillColor=none;top=0;left=0;bottom=0;right=0;fontStyle=1" parent="JU6Ls0UAyjR_cwakm41P-62" vertex="1">
          <mxGeometry x="550" width="80" height="40" as="geometry" />
        </mxCell>
        <mxCell id="JU6Ls0UAyjR_cwakm41P-72" value="&lt;span style=&quot;font-weight: normal&quot;&gt;5,4&lt;/span&gt;" style="shape=partialRectangle;html=1;whiteSpace=wrap;connectable=0;overflow=hidden;fillColor=none;top=0;left=0;bottom=0;right=0;fontStyle=1" parent="JU6Ls0UAyjR_cwakm41P-62" vertex="1">
          <mxGeometry x="630" width="100" height="40" as="geometry" />
        </mxCell>
        <mxCell id="JU6Ls0UAyjR_cwakm41P-73" value="&lt;span style=&quot;font-weight: normal&quot;&gt;4,62&lt;/span&gt;" style="shape=partialRectangle;html=1;whiteSpace=wrap;connectable=0;overflow=hidden;fillColor=none;top=0;left=0;bottom=0;right=0;fontStyle=1" parent="JU6Ls0UAyjR_cwakm41P-62" vertex="1">
          <mxGeometry x="730" width="110" height="40" as="geometry" />
        </mxCell>
        <mxCell id="JU6Ls0UAyjR_cwakm41P-111" value="{4,62}" style="shape=partialRectangle;html=1;whiteSpace=wrap;connectable=0;overflow=hidden;fillColor=none;top=0;left=0;bottom=0;right=0;fontStyle=1" parent="JU6Ls0UAyjR_cwakm41P-62" vertex="1">
          <mxGeometry x="840" width="110" height="40" as="geometry" />
        </mxCell>
        <mxCell id="JU6Ls0UAyjR_cwakm41P-99" style="shape=partialRectangle;html=1;whiteSpace=wrap;connectable=0;overflow=hidden;fillColor=none;top=0;left=0;bottom=0;right=0;fontStyle=1" parent="JU6Ls0UAyjR_cwakm41P-62" vertex="1">
          <mxGeometry x="950" width="100" height="40" as="geometry" />
        </mxCell>
        <mxCell id="JU6Ls0UAyjR_cwakm41P-153" style="shape=partialRectangle;html=1;whiteSpace=wrap;connectable=0;overflow=hidden;fillColor=none;top=0;left=0;bottom=0;right=0;fontStyle=1" parent="JU6Ls0UAyjR_cwakm41P-62" vertex="1">
          <mxGeometry x="1050" width="140" height="40" as="geometry" />
        </mxCell>
        <mxCell id="JU6Ls0UAyjR_cwakm41P-74" style="shape=partialRectangle;html=1;whiteSpace=wrap;connectable=0;overflow=hidden;fillColor=none;top=0;left=0;bottom=0;right=0;fontStyle=1" parent="JU6Ls0UAyjR_cwakm41P-62" vertex="1">
          <mxGeometry x="1190" width="230" height="40" as="geometry" />
        </mxCell>
        <mxCell id="JU6Ls0UAyjR_cwakm41P-127" style="shape=partialRectangle;html=1;whiteSpace=wrap;collapsible=0;dropTarget=0;pointerEvents=0;fillColor=none;top=0;left=0;bottom=0;right=0;points=[[0,0.5],[1,0.5]];portConstraint=eastwest;" parent="aAwCayTCrIzlKERKmkv0-2" vertex="1">
          <mxGeometry y="480" width="1420" height="40" as="geometry" />
        </mxCell>
        <mxCell id="JU6Ls0UAyjR_cwakm41P-128" value="12" style="shape=partialRectangle;html=1;whiteSpace=wrap;connectable=0;overflow=hidden;fillColor=none;top=0;left=0;bottom=0;right=0;" parent="JU6Ls0UAyjR_cwakm41P-127" vertex="1">
          <mxGeometry width="80" height="40" as="geometry" />
        </mxCell>
        <mxCell id="JU6Ls0UAyjR_cwakm41P-129" value="10" style="shape=partialRectangle;html=1;whiteSpace=wrap;connectable=0;overflow=hidden;fillColor=none;top=0;left=0;bottom=0;right=0;" parent="JU6Ls0UAyjR_cwakm41P-127" vertex="1">
          <mxGeometry x="80" width="40" height="40" as="geometry" />
        </mxCell>
        <mxCell id="JU6Ls0UAyjR_cwakm41P-130" value="2" style="shape=partialRectangle;html=1;whiteSpace=wrap;connectable=0;overflow=hidden;fillColor=none;top=0;left=0;bottom=0;right=0;" parent="JU6Ls0UAyjR_cwakm41P-127" vertex="1">
          <mxGeometry x="120" width="40" height="40" as="geometry" />
        </mxCell>
        <mxCell id="JU6Ls0UAyjR_cwakm41P-131" value="3" style="shape=partialRectangle;html=1;whiteSpace=wrap;connectable=0;overflow=hidden;fillColor=none;top=0;left=0;bottom=0;right=0;fontStyle=1" parent="JU6Ls0UAyjR_cwakm41P-127" vertex="1">
          <mxGeometry x="160" width="40" height="40" as="geometry" />
        </mxCell>
        <mxCell id="JU6Ls0UAyjR_cwakm41P-132" value="&lt;span style=&quot;font-weight: normal&quot;&gt;4&lt;/span&gt;" style="shape=partialRectangle;html=1;whiteSpace=wrap;connectable=0;overflow=hidden;fillColor=none;top=0;left=0;bottom=0;right=0;fontStyle=1" parent="JU6Ls0UAyjR_cwakm41P-127" vertex="1">
          <mxGeometry x="200" width="40" height="40" as="geometry" />
        </mxCell>
        <mxCell id="JU6Ls0UAyjR_cwakm41P-133" value="&lt;span style=&quot;font-weight: 400&quot;&gt;1,71&lt;/span&gt;" style="shape=partialRectangle;html=1;whiteSpace=wrap;connectable=0;overflow=hidden;fillColor=none;top=0;left=0;bottom=0;right=0;fontStyle=1" parent="JU6Ls0UAyjR_cwakm41P-127" vertex="1">
          <mxGeometry x="240" width="140" height="40" as="geometry" />
        </mxCell>
        <mxCell id="JU6Ls0UAyjR_cwakm41P-134" value="&lt;span style=&quot;font-weight: 400&quot;&gt;3,71&lt;/span&gt;" style="shape=partialRectangle;html=1;whiteSpace=wrap;connectable=0;overflow=hidden;fillColor=none;top=0;left=0;bottom=0;right=0;fontStyle=1" parent="JU6Ls0UAyjR_cwakm41P-127" vertex="1">
          <mxGeometry x="380" width="90" height="40" as="geometry" />
        </mxCell>
        <mxCell id="JU6Ls0UAyjR_cwakm41P-135" value="&lt;span style=&quot;font-weight: normal&quot;&gt;2,7&lt;/span&gt;" style="shape=partialRectangle;html=1;whiteSpace=wrap;connectable=0;overflow=hidden;fillColor=none;top=0;left=0;bottom=0;right=0;fontStyle=1" parent="JU6Ls0UAyjR_cwakm41P-127" vertex="1">
          <mxGeometry x="470" width="80" height="40" as="geometry" />
        </mxCell>
        <mxCell id="JU6Ls0UAyjR_cwakm41P-136" value="&lt;span style=&quot;font-weight: normal&quot;&gt;2,7&lt;/span&gt;" style="shape=partialRectangle;html=1;whiteSpace=wrap;connectable=0;overflow=hidden;fillColor=none;top=0;left=0;bottom=0;right=0;fontStyle=1" parent="JU6Ls0UAyjR_cwakm41P-127" vertex="1">
          <mxGeometry x="550" width="80" height="40" as="geometry" />
        </mxCell>
        <mxCell id="JU6Ls0UAyjR_cwakm41P-137" value="&lt;span style=&quot;font-weight: normal&quot;&gt;5,4&lt;/span&gt;" style="shape=partialRectangle;html=1;whiteSpace=wrap;connectable=0;overflow=hidden;fillColor=none;top=0;left=0;bottom=0;right=0;fontStyle=1" parent="JU6Ls0UAyjR_cwakm41P-127" vertex="1">
          <mxGeometry x="630" width="100" height="40" as="geometry" />
        </mxCell>
        <mxCell id="JU6Ls0UAyjR_cwakm41P-138" value="&lt;span style=&quot;font-weight: 400&quot;&gt;4,62&lt;/span&gt;" style="shape=partialRectangle;html=1;whiteSpace=wrap;connectable=0;overflow=hidden;fillColor=none;top=0;left=0;bottom=0;right=0;fontStyle=1" parent="JU6Ls0UAyjR_cwakm41P-127" vertex="1">
          <mxGeometry x="730" width="110" height="40" as="geometry" />
        </mxCell>
        <mxCell id="JU6Ls0UAyjR_cwakm41P-139" value="&lt;span style=&quot;font-weight: 400&quot;&gt;4,62&lt;/span&gt;" style="shape=partialRectangle;html=1;whiteSpace=wrap;connectable=0;overflow=hidden;fillColor=none;top=0;left=0;bottom=0;right=0;fontStyle=1" parent="JU6Ls0UAyjR_cwakm41P-127" vertex="1">
          <mxGeometry x="840" width="110" height="40" as="geometry" />
        </mxCell>
        <mxCell id="JU6Ls0UAyjR_cwakm41P-140" value="E_r2/e_r2" style="shape=partialRectangle;html=1;whiteSpace=wrap;connectable=0;overflow=hidden;fillColor=none;top=0;left=0;bottom=0;right=0;fontStyle=1" parent="JU6Ls0UAyjR_cwakm41P-127" vertex="1">
          <mxGeometry x="950" width="100" height="40" as="geometry" />
        </mxCell>
        <mxCell id="JU6Ls0UAyjR_cwakm41P-154" style="shape=partialRectangle;html=1;whiteSpace=wrap;connectable=0;overflow=hidden;fillColor=none;top=0;left=0;bottom=0;right=0;fontStyle=1" parent="JU6Ls0UAyjR_cwakm41P-127" vertex="1">
          <mxGeometry x="1050" width="140" height="40" as="geometry" />
        </mxCell>
        <mxCell id="JU6Ls0UAyjR_cwakm41P-141" style="shape=partialRectangle;html=1;whiteSpace=wrap;connectable=0;overflow=hidden;fillColor=none;top=0;left=0;bottom=0;right=0;fontStyle=1" parent="JU6Ls0UAyjR_cwakm41P-127" vertex="1">
          <mxGeometry x="1190" width="230" height="40" as="geometry" />
        </mxCell>
        <mxCell id="JU6Ls0UAyjR_cwakm41P-112" style="shape=partialRectangle;html=1;whiteSpace=wrap;collapsible=0;dropTarget=0;pointerEvents=0;fillColor=none;top=0;left=0;bottom=0;right=0;points=[[0,0.5],[1,0.5]];portConstraint=eastwest;" parent="aAwCayTCrIzlKERKmkv0-2" vertex="1">
          <mxGeometry y="520" width="1420" height="40" as="geometry" />
        </mxCell>
        <mxCell id="JU6Ls0UAyjR_cwakm41P-113" value="13" style="shape=partialRectangle;html=1;whiteSpace=wrap;connectable=0;overflow=hidden;fillColor=none;top=0;left=0;bottom=0;right=0;" parent="JU6Ls0UAyjR_cwakm41P-112" vertex="1">
          <mxGeometry width="80" height="40" as="geometry" />
        </mxCell>
        <mxCell id="JU6Ls0UAyjR_cwakm41P-114" value="10" style="shape=partialRectangle;html=1;whiteSpace=wrap;connectable=0;overflow=hidden;fillColor=none;top=0;left=0;bottom=0;right=0;" parent="JU6Ls0UAyjR_cwakm41P-112" vertex="1">
          <mxGeometry x="80" width="40" height="40" as="geometry" />
        </mxCell>
        <mxCell id="JU6Ls0UAyjR_cwakm41P-115" value="2" style="shape=partialRectangle;html=1;whiteSpace=wrap;connectable=0;overflow=hidden;fillColor=none;top=0;left=0;bottom=0;right=0;" parent="JU6Ls0UAyjR_cwakm41P-112" vertex="1">
          <mxGeometry x="120" width="40" height="40" as="geometry" />
        </mxCell>
        <mxCell id="JU6Ls0UAyjR_cwakm41P-116" value="3" style="shape=partialRectangle;html=1;whiteSpace=wrap;connectable=0;overflow=hidden;fillColor=none;top=0;left=0;bottom=0;right=0;fontStyle=1" parent="JU6Ls0UAyjR_cwakm41P-112" vertex="1">
          <mxGeometry x="160" width="40" height="40" as="geometry" />
        </mxCell>
        <mxCell id="JU6Ls0UAyjR_cwakm41P-117" value="&lt;span style=&quot;font-weight: normal&quot;&gt;4&lt;/span&gt;" style="shape=partialRectangle;html=1;whiteSpace=wrap;connectable=0;overflow=hidden;fillColor=none;top=0;left=0;bottom=0;right=0;fontStyle=1" parent="JU6Ls0UAyjR_cwakm41P-112" vertex="1">
          <mxGeometry x="200" width="40" height="40" as="geometry" />
        </mxCell>
        <mxCell id="JU6Ls0UAyjR_cwakm41P-118" value="&lt;span style=&quot;font-weight: 400&quot;&gt;1,71&lt;/span&gt;" style="shape=partialRectangle;html=1;whiteSpace=wrap;connectable=0;overflow=hidden;fillColor=none;top=0;left=0;bottom=0;right=0;fontStyle=1" parent="JU6Ls0UAyjR_cwakm41P-112" vertex="1">
          <mxGeometry x="240" width="140" height="40" as="geometry" />
        </mxCell>
        <mxCell id="JU6Ls0UAyjR_cwakm41P-119" value="&lt;span style=&quot;font-weight: 400&quot;&gt;3,71&lt;/span&gt;" style="shape=partialRectangle;html=1;whiteSpace=wrap;connectable=0;overflow=hidden;fillColor=none;top=0;left=0;bottom=0;right=0;fontStyle=1" parent="JU6Ls0UAyjR_cwakm41P-112" vertex="1">
          <mxGeometry x="380" width="90" height="40" as="geometry" />
        </mxCell>
        <mxCell id="JU6Ls0UAyjR_cwakm41P-120" value="&lt;span style=&quot;font-weight: normal&quot;&gt;2,7&lt;/span&gt;" style="shape=partialRectangle;html=1;whiteSpace=wrap;connectable=0;overflow=hidden;fillColor=none;top=0;left=0;bottom=0;right=0;fontStyle=1" parent="JU6Ls0UAyjR_cwakm41P-112" vertex="1">
          <mxGeometry x="470" width="80" height="40" as="geometry" />
        </mxCell>
        <mxCell id="JU6Ls0UAyjR_cwakm41P-121" value="&lt;span style=&quot;font-weight: normal&quot;&gt;2,7&lt;/span&gt;" style="shape=partialRectangle;html=1;whiteSpace=wrap;connectable=0;overflow=hidden;fillColor=none;top=0;left=0;bottom=0;right=0;fontStyle=1" parent="JU6Ls0UAyjR_cwakm41P-112" vertex="1">
          <mxGeometry x="550" width="80" height="40" as="geometry" />
        </mxCell>
        <mxCell id="JU6Ls0UAyjR_cwakm41P-122" value="&lt;span style=&quot;font-weight: normal&quot;&gt;5,4&lt;/span&gt;" style="shape=partialRectangle;html=1;whiteSpace=wrap;connectable=0;overflow=hidden;fillColor=none;top=0;left=0;bottom=0;right=0;fontStyle=1" parent="JU6Ls0UAyjR_cwakm41P-112" vertex="1">
          <mxGeometry x="630" width="100" height="40" as="geometry" />
        </mxCell>
        <mxCell id="JU6Ls0UAyjR_cwakm41P-123" value="&lt;span style=&quot;font-weight: 400&quot;&gt;4,62&lt;/span&gt;" style="shape=partialRectangle;html=1;whiteSpace=wrap;connectable=0;overflow=hidden;fillColor=none;top=0;left=0;bottom=0;right=0;fontStyle=1" parent="JU6Ls0UAyjR_cwakm41P-112" vertex="1">
          <mxGeometry x="730" width="110" height="40" as="geometry" />
        </mxCell>
        <mxCell id="JU6Ls0UAyjR_cwakm41P-124" value="&lt;span style=&quot;font-weight: 400&quot;&gt;4,62&lt;/span&gt;" style="shape=partialRectangle;html=1;whiteSpace=wrap;connectable=0;overflow=hidden;fillColor=none;top=0;left=0;bottom=0;right=0;fontStyle=1" parent="JU6Ls0UAyjR_cwakm41P-112" vertex="1">
          <mxGeometry x="840" width="110" height="40" as="geometry" />
        </mxCell>
        <mxCell id="JU6Ls0UAyjR_cwakm41P-125" value="&lt;span style=&quot;font-weight: normal&quot;&gt;1,15&lt;/span&gt;" style="shape=partialRectangle;html=1;whiteSpace=wrap;connectable=0;overflow=hidden;fillColor=none;top=0;left=0;bottom=0;right=0;fontStyle=1" parent="JU6Ls0UAyjR_cwakm41P-112" vertex="1">
          <mxGeometry x="950" width="100" height="40" as="geometry" />
        </mxCell>
        <mxCell id="JU6Ls0UAyjR_cwakm41P-155" value="E_r3/e_r3" style="shape=partialRectangle;html=1;whiteSpace=wrap;connectable=0;overflow=hidden;fillColor=none;top=0;left=0;bottom=0;right=0;fontStyle=1" parent="JU6Ls0UAyjR_cwakm41P-112" vertex="1">
          <mxGeometry x="1050" width="140" height="40" as="geometry" />
        </mxCell>
        <mxCell id="JU6Ls0UAyjR_cwakm41P-126" style="shape=partialRectangle;html=1;whiteSpace=wrap;connectable=0;overflow=hidden;fillColor=none;top=0;left=0;bottom=0;right=0;fontStyle=1" parent="JU6Ls0UAyjR_cwakm41P-112" vertex="1">
          <mxGeometry x="1190" width="230" height="40" as="geometry" />
        </mxCell>
        <mxCell id="JU6Ls0UAyjR_cwakm41P-156" style="shape=partialRectangle;html=1;whiteSpace=wrap;collapsible=0;dropTarget=0;pointerEvents=0;fillColor=none;top=0;left=0;bottom=0;right=0;points=[[0,0.5],[1,0.5]];portConstraint=eastwest;" parent="aAwCayTCrIzlKERKmkv0-2" vertex="1">
          <mxGeometry y="560" width="1420" height="40" as="geometry" />
        </mxCell>
        <mxCell id="JU6Ls0UAyjR_cwakm41P-157" value="14" style="shape=partialRectangle;html=1;whiteSpace=wrap;connectable=0;overflow=hidden;fillColor=none;top=0;left=0;bottom=0;right=0;" parent="JU6Ls0UAyjR_cwakm41P-156" vertex="1">
          <mxGeometry width="80" height="40" as="geometry" />
        </mxCell>
        <mxCell id="JU6Ls0UAyjR_cwakm41P-158" value="10" style="shape=partialRectangle;html=1;whiteSpace=wrap;connectable=0;overflow=hidden;fillColor=none;top=0;left=0;bottom=0;right=0;" parent="JU6Ls0UAyjR_cwakm41P-156" vertex="1">
          <mxGeometry x="80" width="40" height="40" as="geometry" />
        </mxCell>
        <mxCell id="JU6Ls0UAyjR_cwakm41P-159" value="2" style="shape=partialRectangle;html=1;whiteSpace=wrap;connectable=0;overflow=hidden;fillColor=none;top=0;left=0;bottom=0;right=0;" parent="JU6Ls0UAyjR_cwakm41P-156" vertex="1">
          <mxGeometry x="120" width="40" height="40" as="geometry" />
        </mxCell>
        <mxCell id="JU6Ls0UAyjR_cwakm41P-160" value="3" style="shape=partialRectangle;html=1;whiteSpace=wrap;connectable=0;overflow=hidden;fillColor=none;top=0;left=0;bottom=0;right=0;fontStyle=1" parent="JU6Ls0UAyjR_cwakm41P-156" vertex="1">
          <mxGeometry x="160" width="40" height="40" as="geometry" />
        </mxCell>
        <mxCell id="JU6Ls0UAyjR_cwakm41P-161" value="&lt;span style=&quot;font-weight: normal&quot;&gt;4&lt;/span&gt;" style="shape=partialRectangle;html=1;whiteSpace=wrap;connectable=0;overflow=hidden;fillColor=none;top=0;left=0;bottom=0;right=0;fontStyle=1" parent="JU6Ls0UAyjR_cwakm41P-156" vertex="1">
          <mxGeometry x="200" width="40" height="40" as="geometry" />
        </mxCell>
        <mxCell id="JU6Ls0UAyjR_cwakm41P-162" value="&lt;span style=&quot;font-weight: 400&quot;&gt;1,71&lt;/span&gt;" style="shape=partialRectangle;html=1;whiteSpace=wrap;connectable=0;overflow=hidden;fillColor=none;top=0;left=0;bottom=0;right=0;fontStyle=1" parent="JU6Ls0UAyjR_cwakm41P-156" vertex="1">
          <mxGeometry x="240" width="140" height="40" as="geometry" />
        </mxCell>
        <mxCell id="JU6Ls0UAyjR_cwakm41P-163" value="&lt;span style=&quot;font-weight: 400&quot;&gt;3,71&lt;/span&gt;" style="shape=partialRectangle;html=1;whiteSpace=wrap;connectable=0;overflow=hidden;fillColor=none;top=0;left=0;bottom=0;right=0;fontStyle=1" parent="JU6Ls0UAyjR_cwakm41P-156" vertex="1">
          <mxGeometry x="380" width="90" height="40" as="geometry" />
        </mxCell>
        <mxCell id="JU6Ls0UAyjR_cwakm41P-164" value="&lt;span style=&quot;font-weight: normal&quot;&gt;2,7&lt;/span&gt;" style="shape=partialRectangle;html=1;whiteSpace=wrap;connectable=0;overflow=hidden;fillColor=none;top=0;left=0;bottom=0;right=0;fontStyle=1" parent="JU6Ls0UAyjR_cwakm41P-156" vertex="1">
          <mxGeometry x="470" width="80" height="40" as="geometry" />
        </mxCell>
        <mxCell id="JU6Ls0UAyjR_cwakm41P-165" value="&lt;span style=&quot;font-weight: normal&quot;&gt;2,7&lt;/span&gt;" style="shape=partialRectangle;html=1;whiteSpace=wrap;connectable=0;overflow=hidden;fillColor=none;top=0;left=0;bottom=0;right=0;fontStyle=1" parent="JU6Ls0UAyjR_cwakm41P-156" vertex="1">
          <mxGeometry x="550" width="80" height="40" as="geometry" />
        </mxCell>
        <mxCell id="JU6Ls0UAyjR_cwakm41P-166" value="&lt;span style=&quot;font-weight: normal&quot;&gt;5,4&lt;/span&gt;" style="shape=partialRectangle;html=1;whiteSpace=wrap;connectable=0;overflow=hidden;fillColor=none;top=0;left=0;bottom=0;right=0;fontStyle=1" parent="JU6Ls0UAyjR_cwakm41P-156" vertex="1">
          <mxGeometry x="630" width="100" height="40" as="geometry" />
        </mxCell>
        <mxCell id="JU6Ls0UAyjR_cwakm41P-167" value="&lt;span style=&quot;font-weight: 400&quot;&gt;4,62&lt;/span&gt;" style="shape=partialRectangle;html=1;whiteSpace=wrap;connectable=0;overflow=hidden;fillColor=none;top=0;left=0;bottom=0;right=0;fontStyle=1" parent="JU6Ls0UAyjR_cwakm41P-156" vertex="1">
          <mxGeometry x="730" width="110" height="40" as="geometry" />
        </mxCell>
        <mxCell id="JU6Ls0UAyjR_cwakm41P-168" value="&lt;span style=&quot;font-weight: 400&quot;&gt;4,62&lt;/span&gt;" style="shape=partialRectangle;html=1;whiteSpace=wrap;connectable=0;overflow=hidden;fillColor=none;top=0;left=0;bottom=0;right=0;fontStyle=1" parent="JU6Ls0UAyjR_cwakm41P-156" vertex="1">
          <mxGeometry x="840" width="110" height="40" as="geometry" />
        </mxCell>
        <mxCell id="JU6Ls0UAyjR_cwakm41P-169" value="&lt;span style=&quot;font-weight: normal&quot;&gt;1,15&lt;/span&gt;" style="shape=partialRectangle;html=1;whiteSpace=wrap;connectable=0;overflow=hidden;fillColor=none;top=0;left=0;bottom=0;right=0;fontStyle=1" parent="JU6Ls0UAyjR_cwakm41P-156" vertex="1">
          <mxGeometry x="950" width="100" height="40" as="geometry" />
        </mxCell>
        <mxCell id="JU6Ls0UAyjR_cwakm41P-170" value="&lt;span style=&quot;font-weight: normal&quot;&gt;1,15&lt;/span&gt;" style="shape=partialRectangle;html=1;whiteSpace=wrap;connectable=0;overflow=hidden;fillColor=none;top=0;left=0;bottom=0;right=0;fontStyle=1" parent="JU6Ls0UAyjR_cwakm41P-156" vertex="1">
          <mxGeometry x="1050" width="140" height="40" as="geometry" />
        </mxCell>
        <mxCell id="JU6Ls0UAyjR_cwakm41P-171" value="&lt;span&gt;I_r1,I_r2,i_r3,E_r1,E_r2.E_r3&lt;/span&gt;" style="shape=partialRectangle;html=1;whiteSpace=wrap;connectable=0;overflow=hidden;fillColor=none;top=0;left=0;bottom=0;right=0;fontStyle=1" parent="JU6Ls0UAyjR_cwakm41P-156" vertex="1">
          <mxGeometry x="1190" width="230" height="40" as="geometry" />
        </mxCell>
        <mxCell id="aAwCayTCrIzlKERKmkv0-135" value="&lt;b&gt;&lt;font color=&quot;#000099&quot; style=&quot;font-size: 23px&quot;&gt;Teste de Mesa&lt;/font&gt;&lt;/b&gt;" style="text;html=1;strokeColor=none;fillColor=none;align=center;verticalAlign=middle;whiteSpace=wrap;rounded=0;shadow=1;fontSize=15;" parent="1" vertex="1">
          <mxGeometry x="930" y="160" width="260" height="20" as="geometry" />
        </mxCell>
        <mxCell id="aAwCayTCrIzlKERKmkv0-136" style="edgeStyle=orthogonalEdgeStyle;rounded=0;orthogonalLoop=1;jettySize=auto;html=1;exitX=0.5;exitY=1;exitDx=0;exitDy=0;exitPerimeter=0;entryX=0.5;entryY=0;entryDx=0;entryDy=0;fontStyle=1" parent="1" source="aAwCayTCrIzlKERKmkv0-137" edge="1">
          <mxGeometry relative="1" as="geometry">
            <mxPoint x="193.44000000000005" y="280" as="targetPoint" />
          </mxGeometry>
        </mxCell>
        <mxCell id="aAwCayTCrIzlKERKmkv0-137" value="Inicio" style="strokeWidth=2;html=1;shape=mxgraph.flowchart.start_1;whiteSpace=wrap;fillColor=#FFFFFF;strokeColor=#141414;shadow=1;fontStyle=1" parent="1" vertex="1">
          <mxGeometry x="143.44" y="190" width="100" height="60" as="geometry" />
        </mxCell>
        <mxCell id="aAwCayTCrIzlKERKmkv0-159" value="" style="edgeStyle=orthogonalEdgeStyle;rounded=0;orthogonalLoop=1;jettySize=auto;html=1;" parent="1" source="aAwCayTCrIzlKERKmkv0-140" target="aAwCayTCrIzlKERKmkv0-146" edge="1">
          <mxGeometry relative="1" as="geometry" />
        </mxCell>
        <mxCell id="aAwCayTCrIzlKERKmkv0-140" value="e_r1" style="html=1;strokeWidth=2;shape=manualInput;whiteSpace=wrap;rounded=1;size=26;arcSize=11;fontStyle=1" parent="1" vertex="1">
          <mxGeometry x="143.44" y="460" width="100" height="60" as="geometry" />
        </mxCell>
        <mxCell id="aAwCayTCrIzlKERKmkv0-161" value="" style="edgeStyle=orthogonalEdgeStyle;rounded=0;orthogonalLoop=1;jettySize=auto;html=1;" parent="1" source="aAwCayTCrIzlKERKmkv0-156" edge="1">
          <mxGeometry relative="1" as="geometry">
            <mxPoint x="193.4000000000001" y="865" as="targetPoint" />
          </mxGeometry>
        </mxCell>
        <mxCell id="JU6Ls0UAyjR_cwakm41P-176" value="" style="edgeStyle=orthogonalEdgeStyle;rounded=0;orthogonalLoop=1;jettySize=auto;html=1;" parent="1" source="aAwCayTCrIzlKERKmkv0-142" target="aAwCayTCrIzlKERKmkv0-156" edge="1">
          <mxGeometry relative="1" as="geometry" />
        </mxCell>
        <mxCell id="aAwCayTCrIzlKERKmkv0-142" value="ra=(e_r2*e_r3)/(e_r2+e_r3)" style="rounded=1;whiteSpace=wrap;html=1;absoluteArcSize=1;arcSize=14;strokeWidth=2;fontStyle=1" parent="1" vertex="1">
          <mxGeometry x="100" y="720" width="165.16" height="40" as="geometry" />
        </mxCell>
        <mxCell id="aAwCayTCrIzlKERKmkv0-163" value="" style="edgeStyle=orthogonalEdgeStyle;rounded=0;orthogonalLoop=1;jettySize=auto;html=1;" parent="1" source="aAwCayTCrIzlKERKmkv0-144" target="aAwCayTCrIzlKERKmkv0-162" edge="1">
          <mxGeometry relative="1" as="geometry" />
        </mxCell>
        <mxCell id="aAwCayTCrIzlKERKmkv0-144" value="i_r1,i_r2,i_r3,E_r1,E_r2.E_r3" style="strokeWidth=2;html=1;shape=mxgraph.flowchart.document2;whiteSpace=wrap;size=0.25;fontStyle=1" parent="1" vertex="1">
          <mxGeometry x="90.16" y="1420" width="206.56" height="60" as="geometry" />
        </mxCell>
        <mxCell id="JU6Ls0UAyjR_cwakm41P-2" style="edgeStyle=orthogonalEdgeStyle;rounded=0;orthogonalLoop=1;jettySize=auto;html=1;" parent="1" source="aAwCayTCrIzlKERKmkv0-146" edge="1">
          <mxGeometry relative="1" as="geometry">
            <mxPoint x="193.44000000000005" y="640" as="targetPoint" />
          </mxGeometry>
        </mxCell>
        <mxCell id="aAwCayTCrIzlKERKmkv0-146" value="&lt;b&gt;e_r2&lt;/b&gt;" style="html=1;strokeWidth=2;shape=manualInput;whiteSpace=wrap;rounded=1;size=26;arcSize=11;" parent="1" vertex="1">
          <mxGeometry x="143.44" y="550" width="100" height="60" as="geometry" />
        </mxCell>
        <mxCell id="aAwCayTCrIzlKERKmkv0-147" style="edgeStyle=orthogonalEdgeStyle;rounded=0;orthogonalLoop=1;jettySize=auto;html=1;entryX=0.5;entryY=0;entryDx=0;entryDy=0;" parent="1" source="aAwCayTCrIzlKERKmkv0-148" target="aAwCayTCrIzlKERKmkv0-140" edge="1">
          <mxGeometry relative="1" as="geometry" />
        </mxCell>
        <mxCell id="aAwCayTCrIzlKERKmkv0-148" value="e_E1" style="html=1;strokeWidth=2;shape=manualInput;whiteSpace=wrap;rounded=1;size=26;arcSize=11;fontStyle=1" parent="1" vertex="1">
          <mxGeometry x="143.44" y="380" width="100" height="60" as="geometry" />
        </mxCell>
        <mxCell id="Jz5caGkYzvTY4KPsm6J8-3" value="" style="edgeStyle=orthogonalEdgeStyle;rounded=0;orthogonalLoop=1;jettySize=auto;html=1;" parent="1" source="aAwCayTCrIzlKERKmkv0-158" target="Jz5caGkYzvTY4KPsm6J8-2" edge="1">
          <mxGeometry relative="1" as="geometry" />
        </mxCell>
        <mxCell id="aAwCayTCrIzlKERKmkv0-158" value="it=e_E1/rt" style="rounded=1;whiteSpace=wrap;html=1;absoluteArcSize=1;arcSize=14;strokeWidth=2;fontStyle=1" parent="1" vertex="1">
          <mxGeometry x="121.72" y="865" width="143.44" height="40" as="geometry" />
        </mxCell>
        <mxCell id="aAwCayTCrIzlKERKmkv0-162" value="Fim" style="ellipse;whiteSpace=wrap;html=1;" parent="1" vertex="1">
          <mxGeometry x="135.16" y="1520" width="116.56" height="50" as="geometry" />
        </mxCell>
        <mxCell id="aAwCayTCrIzlKERKmkv0-211" value="1" style="ellipse;shape=doubleEllipse;whiteSpace=wrap;html=1;aspect=fixed;" parent="1" vertex="1">
          <mxGeometry x="280" y="390" width="40" height="40" as="geometry" />
        </mxCell>
        <mxCell id="aAwCayTCrIzlKERKmkv0-212" value="2" style="ellipse;shape=doubleEllipse;whiteSpace=wrap;html=1;aspect=fixed;" parent="1" vertex="1">
          <mxGeometry x="280" y="470" width="40" height="40" as="geometry" />
        </mxCell>
        <mxCell id="aAwCayTCrIzlKERKmkv0-213" value="3" style="ellipse;shape=doubleEllipse;whiteSpace=wrap;html=1;aspect=fixed;" parent="1" vertex="1">
          <mxGeometry x="280" y="560" width="40" height="40" as="geometry" />
        </mxCell>
        <mxCell id="aAwCayTCrIzlKERKmkv0-214" value="5" style="ellipse;shape=doubleEllipse;whiteSpace=wrap;html=1;aspect=fixed;" parent="1" vertex="1">
          <mxGeometry x="280" y="720" width="40" height="40" as="geometry" />
        </mxCell>
        <mxCell id="aAwCayTCrIzlKERKmkv0-215" value="4" style="ellipse;shape=doubleEllipse;whiteSpace=wrap;html=1;aspect=fixed;" parent="1" vertex="1">
          <mxGeometry x="280" y="640" width="40" height="40" as="geometry" />
        </mxCell>
        <mxCell id="aAwCayTCrIzlKERKmkv0-216" value="6" style="ellipse;shape=doubleEllipse;whiteSpace=wrap;html=1;aspect=fixed;" parent="1" vertex="1">
          <mxGeometry x="280" y="790" width="40" height="40" as="geometry" />
        </mxCell>
        <mxCell id="JU6Ls0UAyjR_cwakm41P-175" value="" style="edgeStyle=orthogonalEdgeStyle;rounded=0;orthogonalLoop=1;jettySize=auto;html=1;" parent="1" source="JU6Ls0UAyjR_cwakm41P-1" edge="1">
          <mxGeometry relative="1" as="geometry">
            <mxPoint x="193" y="720" as="targetPoint" />
          </mxGeometry>
        </mxCell>
        <mxCell id="JU6Ls0UAyjR_cwakm41P-1" value="&lt;b&gt;e_r3&lt;/b&gt;" style="html=1;strokeWidth=2;shape=manualInput;whiteSpace=wrap;rounded=1;size=26;arcSize=11;" parent="1" vertex="1">
          <mxGeometry x="143.44" y="630" width="100" height="60" as="geometry" />
        </mxCell>
        <mxCell id="aAwCayTCrIzlKERKmkv0-156" value="rt=e_r1+ra" style="rounded=1;whiteSpace=wrap;html=1;absoluteArcSize=1;arcSize=14;strokeWidth=2;fontStyle=1" parent="1" vertex="1">
          <mxGeometry x="121.72" y="790" width="143.44" height="40" as="geometry" />
        </mxCell>
        <mxCell id="Jz5caGkYzvTY4KPsm6J8-1" value="7" style="ellipse;shape=doubleEllipse;whiteSpace=wrap;html=1;aspect=fixed;" parent="1" vertex="1">
          <mxGeometry x="280" y="865" width="40" height="40" as="geometry" />
        </mxCell>
        <mxCell id="Jz5caGkYzvTY4KPsm6J8-6" value="" style="edgeStyle=orthogonalEdgeStyle;rounded=0;orthogonalLoop=1;jettySize=auto;html=1;" parent="1" source="Jz5caGkYzvTY4KPsm6J8-2" target="Jz5caGkYzvTY4KPsm6J8-5" edge="1">
          <mxGeometry relative="1" as="geometry" />
        </mxCell>
        <mxCell id="Jz5caGkYzvTY4KPsm6J8-2" value="ir1=ira=it" style="rounded=1;whiteSpace=wrap;html=1;absoluteArcSize=1;arcSize=14;strokeWidth=2;fontStyle=1" parent="1" vertex="1">
          <mxGeometry x="121.72" y="940" width="143.44" height="40" as="geometry" />
        </mxCell>
        <mxCell id="Jz5caGkYzvTY4KPsm6J8-4" value="8" style="ellipse;shape=doubleEllipse;whiteSpace=wrap;html=1;aspect=fixed;" parent="1" vertex="1">
          <mxGeometry x="280" y="950" width="40" height="40" as="geometry" />
        </mxCell>
        <mxCell id="Jz5caGkYzvTY4KPsm6J8-10" value="" style="edgeStyle=orthogonalEdgeStyle;rounded=0;orthogonalLoop=1;jettySize=auto;html=1;" parent="1" source="Jz5caGkYzvTY4KPsm6J8-5" target="Jz5caGkYzvTY4KPsm6J8-8" edge="1">
          <mxGeometry relative="1" as="geometry" />
        </mxCell>
        <mxCell id="Jz5caGkYzvTY4KPsm6J8-5" value="E_r1=e_r1*it" style="rounded=1;whiteSpace=wrap;html=1;absoluteArcSize=1;arcSize=14;strokeWidth=2;fontStyle=1" parent="1" vertex="1">
          <mxGeometry x="121.72" y="1020" width="143.44" height="40" as="geometry" />
        </mxCell>
        <mxCell id="Jz5caGkYzvTY4KPsm6J8-7" value="9" style="ellipse;shape=doubleEllipse;whiteSpace=wrap;html=1;aspect=fixed;" parent="1" vertex="1">
          <mxGeometry x="280" y="1020" width="40" height="40" as="geometry" />
        </mxCell>
        <mxCell id="Jz5caGkYzvTY4KPsm6J8-18" value="" style="edgeStyle=orthogonalEdgeStyle;rounded=0;orthogonalLoop=1;jettySize=auto;html=1;" parent="1" source="Jz5caGkYzvTY4KPsm6J8-8" target="Jz5caGkYzvTY4KPsm6J8-12" edge="1">
          <mxGeometry relative="1" as="geometry" />
        </mxCell>
        <mxCell id="Jz5caGkYzvTY4KPsm6J8-8" value="E_ra=ra*it" style="rounded=1;whiteSpace=wrap;html=1;absoluteArcSize=1;arcSize=14;strokeWidth=2;fontStyle=1" parent="1" vertex="1">
          <mxGeometry x="121.72" y="1100" width="143.44" height="40" as="geometry" />
        </mxCell>
        <mxCell id="Jz5caGkYzvTY4KPsm6J8-9" value="10" style="ellipse;shape=doubleEllipse;whiteSpace=wrap;html=1;aspect=fixed;" parent="1" vertex="1">
          <mxGeometry x="280" y="1100" width="40" height="40" as="geometry" />
        </mxCell>
        <mxCell id="Jz5caGkYzvTY4KPsm6J8-19" value="" style="edgeStyle=orthogonalEdgeStyle;rounded=0;orthogonalLoop=1;jettySize=auto;html=1;" parent="1" source="Jz5caGkYzvTY4KPsm6J8-12" target="Jz5caGkYzvTY4KPsm6J8-13" edge="1">
          <mxGeometry relative="1" as="geometry" />
        </mxCell>
        <mxCell id="Jz5caGkYzvTY4KPsm6J8-12" value="E_r2=E_r3=E_ra" style="rounded=1;whiteSpace=wrap;html=1;absoluteArcSize=1;arcSize=14;strokeWidth=2;fontStyle=1" parent="1" vertex="1">
          <mxGeometry x="121.72" y="1180" width="143.44" height="40" as="geometry" />
        </mxCell>
        <mxCell id="Jz5caGkYzvTY4KPsm6J8-20" value="" style="edgeStyle=orthogonalEdgeStyle;rounded=0;orthogonalLoop=1;jettySize=auto;html=1;" parent="1" source="Jz5caGkYzvTY4KPsm6J8-13" target="Jz5caGkYzvTY4KPsm6J8-14" edge="1">
          <mxGeometry relative="1" as="geometry" />
        </mxCell>
        <mxCell id="Jz5caGkYzvTY4KPsm6J8-13" value="ir2=E_r2/e_r2" style="rounded=1;whiteSpace=wrap;html=1;absoluteArcSize=1;arcSize=14;strokeWidth=2;fontStyle=1" parent="1" vertex="1">
          <mxGeometry x="121.72" y="1260" width="143.44" height="40" as="geometry" />
        </mxCell>
        <mxCell id="Jz5caGkYzvTY4KPsm6J8-21" value="" style="edgeStyle=orthogonalEdgeStyle;rounded=0;orthogonalLoop=1;jettySize=auto;html=1;" parent="1" source="Jz5caGkYzvTY4KPsm6J8-14" target="aAwCayTCrIzlKERKmkv0-144" edge="1">
          <mxGeometry relative="1" as="geometry" />
        </mxCell>
        <mxCell id="Jz5caGkYzvTY4KPsm6J8-14" value="i_r3=E_r3/e_r3" style="rounded=1;whiteSpace=wrap;html=1;absoluteArcSize=1;arcSize=14;strokeWidth=2;fontStyle=1" parent="1" vertex="1">
          <mxGeometry x="121.72" y="1340" width="143.44" height="40" as="geometry" />
        </mxCell>
        <mxCell id="Jz5caGkYzvTY4KPsm6J8-15" value="11" style="ellipse;shape=doubleEllipse;whiteSpace=wrap;html=1;aspect=fixed;" parent="1" vertex="1">
          <mxGeometry x="280" y="1180" width="40" height="40" as="geometry" />
        </mxCell>
        <mxCell id="Jz5caGkYzvTY4KPsm6J8-16" value="12" style="ellipse;shape=doubleEllipse;whiteSpace=wrap;html=1;aspect=fixed;" parent="1" vertex="1">
          <mxGeometry x="280" y="1260" width="40" height="40" as="geometry" />
        </mxCell>
        <mxCell id="Jz5caGkYzvTY4KPsm6J8-17" value="13" style="ellipse;shape=doubleEllipse;whiteSpace=wrap;html=1;aspect=fixed;" parent="1" vertex="1">
          <mxGeometry x="280" y="1340" width="40" height="40" as="geometry" />
        </mxCell>
        <mxCell id="zCSDBrZh6kCzl_NNgb3K-4" value="" style="edgeStyle=orthogonalEdgeStyle;rounded=0;orthogonalLoop=1;jettySize=auto;html=1;" parent="1" source="zCSDBrZh6kCzl_NNgb3K-3" target="aAwCayTCrIzlKERKmkv0-148" edge="1">
          <mxGeometry relative="1" as="geometry" />
        </mxCell>
        <mxCell id="zCSDBrZh6kCzl_NNgb3K-3" value="&lt;span style=&quot;font-size: 12px&quot;&gt;e_E1,e_r1,e_r2,e_r3,E_r1,E_r2,E_r3,i_r1,i_r2,i_r3,ra,rt,it,ira,E_ra&lt;/span&gt;" style="shape=internalStorage;whiteSpace=wrap;html=1;dx=15;dy=15;rounded=1;arcSize=8;strokeWidth=2;" parent="1" vertex="1">
          <mxGeometry y="280" width="390" height="70" as="geometry" />
        </mxCell>
      </root>
    </mxGraphModel>
  </diagram>
</mxfile>
